<svg width="500" height="500" viewBox="0 0 500 500" fill="none" xmlns="http://www.w3.org/2000/svg">
<rect width="500" height="500" fill="#7C7C7C"/>
<circle cx="250" cy="250" r="58.5" fill="#7C7C7C" stroke="#F4CA21" stroke-width="25"/>
<path d="M378.77 179.483C362.684 195.569 336.603 195.569 320.517 179.483C304.431 163.397 304.431 137.316 320.517 121.23C336.603 105.144 362.684 105.144 378.77 121.23C394.856 137.316 394.856 163.397 378.77 179.483Z" fill="#F4CA21"/>
<path d="M378.77 378.77C362.684 394.856 336.603 394.856 320.517 378.77C304.431 362.684 304.431 336.603 320.517 320.517C336.603 304.431 362.684 304.431 378.77 320.517C394.856 336.603 394.856 362.684 378.77 378.77Z" fill="#F4CA21"/>
<path d="M179.483 179.483C163.397 195.569 137.316 195.569 121.23 179.483C105.144 163.397 105.144 137.316 121.23 121.23C137.316 105.144 163.397 105.144 179.483 121.23C195.569 137.316 195.569 163.397 179.483 179.483Z" fill="#F4CA21"/>
<path d="M179.483 378.77C163.397 394.856 137.316 394.856 121.23 378.77C105.144 362.684 105.144 336.603 121.23 320.517C137.316 304.431 163.397 304.431 179.483 320.517C195.569 336.603 195.569 362.684 179.483 378.77Z" fill="#F4CA21"/>
<path d="M139.243 279.51C122.945 295.807 96.5211 295.807 80.2233 279.51C63.9256 263.212 63.9256 236.788 80.2233 220.49C96.5211 204.193 122.945 204.193 139.243 220.49C155.541 236.788 155.541 263.212 139.243 279.51Z" fill="#F4CA21"/>
<path d="M279.51 139.243C263.212 155.541 236.788 155.541 220.49 139.243C204.193 122.945 204.193 96.5211 220.49 80.2233C236.788 63.9256 263.212 63.9256 279.51 80.2233C295.807 96.5211 295.807 122.945 279.51 139.243Z" fill="#F4CA21"/>
<path d="M419.777 279.51C403.479 295.807 377.055 295.807 360.757 279.51C344.459 263.212 344.459 236.788 360.757 220.49C377.055 204.193 403.479 204.193 419.777 220.49C436.074 236.788 436.074 263.212 419.777 279.51Z" fill="#F4CA21"/>
<path d="M279.51 419.777C263.212 436.074 236.788 436.074 220.49 419.777C204.193 403.479 204.193 377.055 220.49 360.757C236.788 344.459 263.212 344.459 279.51 360.757C295.807 377.055 295.807 403.479 279.51 419.777Z" fill="#F4CA21"/>
</svg>
