<svg width="500" height="500" viewBox="0 0 500 500" fill="none" xmlns="http://www.w3.org/2000/svg">
<rect width="500" height="500" fill="#B7B7B7"/>
<path d="M436 500C436 475.574 431.189 451.387 421.842 428.821C412.494 406.254 398.794 385.75 381.522 368.478C364.25 351.206 343.746 337.506 321.179 328.158C298.613 318.811 274.426 314 250 314C225.574 314 201.387 318.811 178.821 328.158C156.254 337.506 135.75 351.206 118.478 368.478C101.206 385.75 87.5058 406.254 78.1584 428.821C68.811 451.387 64 475.574 64 500L436 500Z" fill="#606060"/>
<circle cx="249.789" cy="198.789" r="83" fill="#606060"/>
<path d="M358.683 139.156C345.08 152.759 323.025 152.759 309.421 139.156C295.818 125.553 295.818 103.498 309.421 89.8944C323.025 76.2912 345.08 76.2912 358.683 89.8944C372.286 103.498 372.286 125.553 358.683 139.156Z" fill="#F4CA21"/>
<path d="M358.683 307.683C345.08 321.287 323.025 321.287 309.421 307.683C295.818 294.08 295.818 272.025 309.421 258.422C323.025 244.818 345.08 244.818 358.683 258.422C372.286 272.025 372.286 294.08 358.683 307.683Z" fill="#F4CA21"/>
<path d="M190.156 139.156C176.553 152.759 154.498 152.759 140.894 139.156C127.291 125.553 127.291 103.498 140.894 89.8944C154.498 76.2912 176.553 76.2912 190.156 89.8944C203.759 103.498 203.759 125.553 190.156 139.156Z" fill="#F4CA21"/>
<path d="M190.156 307.683C176.553 321.287 154.498 321.287 140.894 307.683C127.291 294.08 127.291 272.025 140.894 258.422C154.498 244.818 176.553 244.818 190.156 258.422C203.759 272.025 203.759 294.08 190.156 307.683Z" fill="#F4CA21"/>
<path d="M156.127 223.744C142.344 237.526 119.999 237.526 106.217 223.744C92.4343 209.962 92.4343 187.616 106.217 173.834C119.999 160.052 142.344 160.052 156.127 173.834C169.909 187.616 169.909 209.962 156.127 223.744Z" fill="#F4CA21"/>
<path d="M274.744 105.127C260.961 118.909 238.616 118.909 224.834 105.127C211.051 91.3445 211.051 68.999 224.834 55.2168C238.616 41.4345 260.961 41.4345 274.744 55.2168C288.526 68.999 288.526 91.3445 274.744 105.127Z" fill="#F4CA21"/>
<path d="M393.361 223.744C379.579 237.526 357.233 237.526 343.451 223.744C329.669 209.962 329.669 187.616 343.451 173.834C357.233 160.052 379.579 160.052 393.361 173.834C407.143 187.616 407.143 209.962 393.361 223.744Z" fill="#F4CA21"/>
<path d="M274.744 342.361C260.961 356.143 238.616 356.143 224.834 342.361C211.051 328.579 211.051 306.233 224.834 292.451C238.616 278.669 260.961 278.669 274.744 292.451C288.526 306.233 288.526 328.579 274.744 342.361Z" fill="#F4CA21"/>
</svg>
