<svg width="45" height="15" viewBox="0 0 45 15" fill="none" xmlns="http://www.w3.org/2000/svg">
<mask id="path-1-outside-1_50_56" maskUnits="userSpaceOnUse" x="-0.5" y="-0.166382" width="23" height="14" fill="black">
<rect fill="white" x="-0.5" y="-0.166382" width="23" height="14"/>
<path d="M12.7002 1.28811C13.0946 0.682122 13.9825 0.682122 14.377 1.28811L20.9941 11.4551C21.4269 12.1203 20.9499 13 20.1562 13H1.80469C1.0193 13 0.539871 12.1358 0.956055 11.4697L4.22949 6.23244C4.62113 5.60576 5.53312 5.60582 5.9248 6.23244L6.83691 7.69045C7.2243 8.31042 8.12367 8.31877 8.52246 7.70608L12.7002 1.28811ZM5.00098 1.50002C7.02539 1.50024 8.73658 2.83763 9.30176 4.67678L8.49805 5.91115C8.45082 4.01946 6.90399 2.50028 5.00098 2.50002C3.06806 2.50002 1.50111 4.06714 1.50098 6.00002C1.501 6.68243 1.6964 7.31911 2.03418 7.85744L1.46094 8.77639C0.860182 8.01153 0.500028 7.04804 0.5 6.00002C0.50013 3.51485 2.51578 1.50002 5.00098 1.50002ZM5.00098 3.50002C6.38142 3.50028 7.50091 4.61953 7.50098 6.00002C7.50098 6.276 7.27689 6.49976 7.00098 6.50002C6.72483 6.50002 6.50098 6.27616 6.50098 6.00002C6.50091 5.17181 5.82914 4.50028 5.00098 4.50002C4.17259 4.50002 3.50104 5.17165 3.50098 6.00002C3.50098 6.276 3.27689 6.49976 3.00098 6.50002C2.72483 6.50002 2.50098 6.27616 2.50098 6.00002C2.50104 4.61936 3.6203 3.50002 5.00098 3.50002Z"/>
</mask>
<path d="M12.7002 1.28811C13.0946 0.682122 13.9825 0.682122 14.377 1.28811L20.9941 11.4551C21.4269 12.1203 20.9499 13 20.1562 13H1.80469C1.0193 13 0.539871 12.1358 0.956055 11.4697L4.22949 6.23244C4.62113 5.60576 5.53312 5.60582 5.9248 6.23244L6.83691 7.69045C7.2243 8.31042 8.12367 8.31877 8.52246 7.70608L12.7002 1.28811ZM5.00098 1.50002C7.02539 1.50024 8.73658 2.83763 9.30176 4.67678L8.49805 5.91115C8.45082 4.01946 6.90399 2.50028 5.00098 2.50002C3.06806 2.50002 1.50111 4.06714 1.50098 6.00002C1.501 6.68243 1.6964 7.31911 2.03418 7.85744L1.46094 8.77639C0.860182 8.01153 0.500028 7.04804 0.5 6.00002C0.50013 3.51485 2.51578 1.50002 5.00098 1.50002ZM5.00098 3.50002C6.38142 3.50028 7.50091 4.61953 7.50098 6.00002C7.50098 6.276 7.27689 6.49976 7.00098 6.50002C6.72483 6.50002 6.50098 6.27616 6.50098 6.00002C6.50091 5.17181 5.82914 4.50028 5.00098 4.50002C4.17259 4.50002 3.50104 5.17165 3.50098 6.00002C3.50098 6.276 3.27689 6.49976 3.00098 6.50002C2.72483 6.50002 2.50098 6.27616 2.50098 6.00002C2.50104 4.61936 3.6203 3.50002 5.00098 3.50002Z" fill="black"/>
<path d="M12.7002 1.28811L13.1192 1.56088L13.1192 1.56086L12.7002 1.28811ZM14.377 1.28811L14.796 1.01536L14.796 1.01535L14.377 1.28811ZM20.9941 11.4551L21.4133 11.1825L21.4132 11.1824L20.9941 11.4551ZM0.956055 11.4697L0.53206 11.2047L0.532027 11.2048L0.956055 11.4697ZM4.22949 6.23244L4.65349 6.49745L4.6535 6.49743L4.22949 6.23244ZM5.9248 6.23244L5.50082 6.49746L5.50092 6.49762L5.9248 6.23244ZM6.83691 7.69045L7.26094 7.4255L7.2608 7.42527L6.83691 7.69045ZM8.52246 7.70608L8.10342 7.4333L8.10341 7.43332L8.52246 7.70608ZM5.00098 1.50002L5.00103 1.00002H5.00098V1.50002ZM9.30176 4.67678L9.72077 4.9496L9.84842 4.75354L9.7797 4.52991L9.30176 4.67678ZM8.49805 5.91115L7.9982 5.92363L8.03839 7.53347L8.91706 6.18397L8.49805 5.91115ZM5.00098 2.50002L5.00104 2.00002H5.00098V2.50002ZM1.50098 6.00002L1.00098 5.99999V6.00004L1.50098 6.00002ZM2.03418 7.85744L2.45841 8.12208L2.62397 7.85667L2.45771 7.5917L2.03418 7.85744ZM1.46094 8.77639L1.06773 9.08523L1.50795 9.64571L1.88516 9.04102L1.46094 8.77639ZM0.5 6.00002L0 5.99999V6.00003L0.5 6.00002ZM5.00098 3.50002L5.00107 3.00002H5.00098V3.50002ZM7.50098 6.00002H8.00098V6L7.50098 6.00002ZM7.00098 6.50002V7.00002L7.00145 7.00002L7.00098 6.50002ZM6.50098 6.00002H7.00098V5.99998L6.50098 6.00002ZM5.00098 4.50002L5.00114 4.00002H5.00098V4.50002ZM3.50098 6.00002L3.00098 5.99998V6.00002H3.50098ZM3.00098 6.50002V7.00002L3.00145 7.00002L3.00098 6.50002ZM2.50098 6.00002L2.00098 6V6.00002H2.50098ZM12.7002 1.28811L13.1192 1.56086C13.3165 1.25787 13.7607 1.25787 13.9579 1.56086L14.377 1.28811L14.796 1.01535C14.2044 0.106374 12.8728 0.106374 12.2811 1.01535L12.7002 1.28811ZM14.377 1.28811L13.9579 1.56085L20.5751 11.7278L20.9941 11.4551L21.4132 11.1824L14.796 1.01536L14.377 1.28811ZM20.9941 11.4551L20.575 11.7277C20.7915 12.0605 20.5529 12.5 20.1562 12.5V13V13.5C21.3469 13.5 22.0622 12.1801 21.4133 11.1825L20.9941 11.4551ZM20.1562 13V12.5H1.80469V13V13.5H20.1562V13ZM1.80469 13V12.5C1.41166 12.5 1.17217 12.0674 1.38008 11.7347L0.956055 11.4697L0.532027 11.2048C-0.0924234 12.2042 0.626936 13.5 1.80469 13.5V13ZM0.956055 11.4697L1.38005 11.7348L4.65349 6.49745L4.22949 6.23244L3.8055 5.96744L0.53206 11.2047L0.956055 11.4697ZM4.22949 6.23244L4.6535 6.49743C4.84928 6.18415 5.30494 6.18409 5.50082 6.49746L5.9248 6.23244L6.34879 5.96742C5.7613 5.02754 4.39299 5.02737 3.80548 5.96746L4.22949 6.23244ZM5.9248 6.23244L5.50092 6.49762L6.41303 7.95563L6.83691 7.69045L7.2608 7.42527L6.34869 5.96726L5.9248 6.23244ZM6.83691 7.69045L6.41289 7.95541C6.99395 8.88533 8.34331 8.89789 8.94151 7.97883L8.52246 7.70608L8.10341 7.43332C7.90403 7.73964 7.45465 7.7355 7.26094 7.4255L6.83691 7.69045ZM8.52246 7.70608L8.9415 7.97885L13.1192 1.56088L12.7002 1.28811L12.2812 1.01533L8.10342 7.4333L8.52246 7.70608ZM5.00098 1.50002L5.00092 2.00002C6.79946 2.00021 8.32126 3.18826 8.82382 4.82365L9.30176 4.67678L9.7797 4.52991C9.15191 2.487 7.25131 1.00026 5.00103 1.00002L5.00098 1.50002ZM9.30176 4.67678L8.88275 4.40396L8.07904 5.63833L8.49805 5.91115L8.91706 6.18397L9.72077 4.9496L9.30176 4.67678ZM8.49805 5.91115L8.99789 5.89868C8.94392 3.73676 7.17626 2.00032 5.00104 2.00002L5.00098 2.50002L5.00091 3.00002C6.63171 3.00024 7.95772 4.30215 7.9982 5.92363L8.49805 5.91115ZM5.00098 2.50002V2.00002C2.79188 2.00002 1.00113 3.79102 1.00098 5.99999L1.50098 6.00002L2.00098 6.00005C2.00109 4.34325 3.34424 3.00002 5.00098 3.00002V2.50002ZM1.50098 6.00002L1.00098 6.00004C1.001 6.77922 1.2244 7.50761 1.61065 8.12319L2.03418 7.85744L2.45771 7.5917C2.1684 7.13061 2.001 6.58564 2.00098 6L1.50098 6.00002ZM2.03418 7.85744L1.60995 7.59281L1.03671 8.51175L1.46094 8.77639L1.88516 9.04102L2.45841 8.12208L2.03418 7.85744ZM1.46094 8.77639L1.85415 8.46754C1.31965 7.78704 1.00002 6.93138 1 6.00001L0.5 6.00002L0 6.00003C3.0756e-05 7.1647 0.400716 8.23602 1.06773 9.08523L1.46094 8.77639ZM0.5 6.00002L1 6.00005C1.00012 3.79111 2.7918 2.00002 5.00098 2.00002V1.50002V1.00002C2.23975 1.00002 0.000144988 3.23859 0 5.99999L0.5 6.00002ZM5.00098 3.50002L5.00088 4.00002C6.10533 4.00023 7.00093 4.89575 7.00098 6.00004L7.50098 6.00002L8.00098 6C8.0009 4.34331 6.65752 3.00034 5.00107 3.00002L5.00098 3.50002ZM7.50098 6.00002H7.00098L7.0005 6.00002L7.00098 6.50002L7.00145 7.00002C7.55267 6.99949 8.00098 6.55262 8.00098 6.00002H7.50098ZM7.00098 6.50002V6.00002H6.50098H6.00098C6.00098 6.55231 6.44869 7.00002 7.00098 7.00002V6.50002ZM6.50098 6.00002L7.00098 5.99998C7.00089 4.89554 6.1052 4.00037 5.00114 4.00002L5.00098 4.50002L5.00082 5.00002C5.55308 5.0002 6.00093 5.44808 6.00098 6.00006L6.50098 6.00002ZM5.00098 4.50002V4.00002C3.89641 4.00002 3.00106 4.89554 3.00098 5.99998L3.50098 6.00002L4.00098 6.00006C4.00102 5.44776 4.44877 5.00002 5.00098 5.00002V4.50002ZM3.50098 6.00002H3.00098L3.0005 6.00002L3.00098 6.50002L3.00145 7.00002C3.55267 6.99949 4.00098 6.55262 4.00098 6.00002H3.50098ZM3.00098 6.50002V6.00002H2.50098H2.00098C2.00098 6.55231 2.44869 7.00002 3.00098 7.00002V6.50002ZM2.50098 6.00002L3.00098 6.00004C3.00103 4.89549 3.89647 4.00002 5.00098 4.00002V3.50002V3.00002C3.34414 3.00002 2.00105 4.34324 2.00098 6L2.50098 6.00002Z" fill="white" mask="url(#path-1-outside-1_50_56)"/>
<mask id="path-3-outside-2_50_56" maskUnits="userSpaceOnUse" x="24.0005" y="2" width="21" height="10" fill="black">
<rect fill="white" x="24.0005" y="2" width="21" height="10"/>
<path d="M26.9653 11.1172C26.5396 11.1172 26.147 11.0078 25.7876 10.7891C25.4321 10.5703 25.147 10.2793 24.9321 9.91602C24.7212 9.54883 24.6157 9.14648 24.6157 8.70898V8.1582C24.6157 8.11523 24.6353 8.09375 24.6743 8.09375H26.022C26.0532 8.09375 26.0688 8.11523 26.0688 8.1582V8.70898C26.0688 8.9707 26.1567 9.19727 26.3325 9.38867C26.5083 9.57617 26.7192 9.66992 26.9653 9.66992C27.2153 9.66992 27.4282 9.57422 27.604 9.38281C27.7798 9.1875 27.8677 8.96289 27.8677 8.70898C27.8677 8.41602 27.6763 8.16016 27.2935 7.94141C27.231 7.90234 27.1489 7.85547 27.0474 7.80078C26.9497 7.74219 26.8325 7.67578 26.6958 7.60156C26.5591 7.52734 26.4263 7.45508 26.2974 7.38477C26.1685 7.31055 26.0435 7.24023 25.9224 7.17383C25.4849 6.91602 25.1587 6.59375 24.9438 6.20703C24.7329 5.81641 24.6274 5.37891 24.6274 4.89453C24.6274 4.44922 24.7368 4.04688 24.9556 3.6875C25.1743 3.33203 25.4595 3.05078 25.811 2.84375C26.1665 2.63281 26.5513 2.52734 26.9653 2.52734C27.3911 2.52734 27.7817 2.63281 28.1372 2.84375C28.4927 3.05859 28.7759 3.34375 28.9868 3.69922C29.2017 4.05469 29.3091 4.45312 29.3091 4.89453V5.87891C29.3091 5.91016 29.2935 5.92578 29.2622 5.92578H27.9146C27.8833 5.92578 27.8677 5.91016 27.8677 5.87891L27.856 4.89453C27.856 4.61328 27.7681 4.38477 27.5923 4.20898C27.4165 4.0332 27.2075 3.94531 26.9653 3.94531C26.7192 3.94531 26.5083 4.03906 26.3325 4.22656C26.1567 4.41406 26.0688 4.63672 26.0688 4.89453C26.0688 5.15625 26.1235 5.375 26.2329 5.55078C26.3462 5.72656 26.5513 5.89453 26.8481 6.05469C26.8794 6.07031 26.9517 6.10938 27.0649 6.17188C27.1782 6.23438 27.3032 6.30469 27.4399 6.38281C27.5806 6.45703 27.7075 6.52539 27.8208 6.58789C27.9341 6.64648 28.0024 6.68164 28.0259 6.69336C28.4243 6.91602 28.7388 7.18945 28.9692 7.51367C29.2036 7.83789 29.3208 8.23633 29.3208 8.70898C29.3208 9.16602 29.2153 9.57617 29.0044 9.93945C28.7896 10.3027 28.5044 10.5898 28.1489 10.8008C27.7935 11.0117 27.3989 11.1172 26.9653 11.1172ZM32.4087 11H31.0317C31.0044 11 30.9907 10.9844 30.9907 10.9531L31.0024 7.54297L29.397 2.69727C29.3892 2.66602 29.4009 2.65039 29.4321 2.65039H30.7681C30.8071 2.65039 30.8306 2.66602 30.8384 2.69727L31.7231 5.92578L32.6255 2.69727C32.6333 2.66602 32.6528 2.65039 32.6841 2.65039H34.0317C34.063 2.65039 34.0747 2.66602 34.0669 2.69727L32.4438 7.49609L32.4556 10.9531C32.4556 10.9844 32.4399 11 32.4087 11ZM36.5688 11.1172C36.1353 11.1172 35.7388 11.0078 35.3794 10.7891C35.0239 10.5703 34.7407 10.2773 34.5298 9.91016C34.3228 9.53906 34.2192 9.12695 34.2192 8.67383L34.231 4.92969C34.231 4.48438 34.3325 4.08203 34.5356 3.72266C34.7388 3.35938 35.0181 3.06836 35.3735 2.84961C35.7329 2.62695 36.1313 2.51562 36.5688 2.51562C37.0142 2.51562 37.4106 2.62305 37.7583 2.83789C38.1099 3.05273 38.3892 3.34375 38.5962 3.71094C38.8071 4.07422 38.9126 4.48047 38.9126 4.92969V5.48047C38.9126 5.51172 38.897 5.52734 38.8657 5.52734H37.5181C37.4868 5.52734 37.4712 5.51172 37.4712 5.48047V4.92969C37.4712 4.66406 37.3853 4.43555 37.2134 4.24414C37.0415 4.05273 36.8267 3.95703 36.5688 3.95703C36.2837 3.95703 36.0649 4.05469 35.9126 4.25C35.7603 4.44531 35.6841 4.67188 35.6841 4.92969V8.67383C35.6841 8.9668 35.77 9.20703 35.9419 9.39453C36.1138 9.57812 36.3228 9.66992 36.5688 9.66992C36.8267 9.66992 37.0415 9.56836 37.2134 9.36523C37.3853 9.1582 37.4712 8.92773 37.4712 8.67383V8.11719C37.4712 8.08594 37.4868 8.07031 37.5181 8.07031H38.8774C38.9087 8.07031 38.9243 8.08594 38.9243 8.11719V8.67383C38.9243 9.12305 38.8188 9.5332 38.6079 9.9043C38.3931 10.2715 38.1099 10.5664 37.7583 10.7891C37.4067 11.0078 37.0103 11.1172 36.5688 11.1172ZM41.8364 11.1172C41.4106 11.1172 41.0181 11.0078 40.6587 10.7891C40.3032 10.5703 40.0181 10.2793 39.8032 9.91602C39.5923 9.54883 39.4868 9.14648 39.4868 8.70898V8.1582C39.4868 8.11523 39.5063 8.09375 39.5454 8.09375H40.8931C40.9243 8.09375 40.9399 8.11523 40.9399 8.1582V8.70898C40.9399 8.9707 41.0278 9.19727 41.2036 9.38867C41.3794 9.57617 41.5903 9.66992 41.8364 9.66992C42.0864 9.66992 42.2993 9.57422 42.4751 9.38281C42.6509 9.1875 42.7388 8.96289 42.7388 8.70898C42.7388 8.41602 42.5474 8.16016 42.1646 7.94141C42.1021 7.90234 42.02 7.85547 41.9185 7.80078C41.8208 7.74219 41.7036 7.67578 41.5669 7.60156C41.4302 7.52734 41.2974 7.45508 41.1685 7.38477C41.0396 7.31055 40.9146 7.24023 40.7935 7.17383C40.356 6.91602 40.0298 6.59375 39.8149 6.20703C39.604 5.81641 39.4985 5.37891 39.4985 4.89453C39.4985 4.44922 39.6079 4.04688 39.8267 3.6875C40.0454 3.33203 40.3306 3.05078 40.6821 2.84375C41.0376 2.63281 41.4224 2.52734 41.8364 2.52734C42.2622 2.52734 42.6528 2.63281 43.0083 2.84375C43.3638 3.05859 43.647 3.34375 43.8579 3.69922C44.0728 4.05469 44.1802 4.45312 44.1802 4.89453V5.87891C44.1802 5.91016 44.1646 5.92578 44.1333 5.92578H42.7856C42.7544 5.92578 42.7388 5.91016 42.7388 5.87891L42.7271 4.89453C42.7271 4.61328 42.6392 4.38477 42.4634 4.20898C42.2876 4.0332 42.0786 3.94531 41.8364 3.94531C41.5903 3.94531 41.3794 4.03906 41.2036 4.22656C41.0278 4.41406 40.9399 4.63672 40.9399 4.89453C40.9399 5.15625 40.9946 5.375 41.104 5.55078C41.2173 5.72656 41.4224 5.89453 41.7192 6.05469C41.7505 6.07031 41.8228 6.10938 41.936 6.17188C42.0493 6.23438 42.1743 6.30469 42.311 6.38281C42.4517 6.45703 42.5786 6.52539 42.6919 6.58789C42.8052 6.64648 42.8735 6.68164 42.897 6.69336C43.2954 6.91602 43.6099 7.18945 43.8403 7.51367C44.0747 7.83789 44.1919 8.23633 44.1919 8.70898C44.1919 9.16602 44.0864 9.57617 43.8755 9.93945C43.6606 10.3027 43.3755 10.5898 43.02 10.8008C42.6646 11.0117 42.27 11.1172 41.8364 11.1172Z"/>
</mask>
<path d="M26.9653 11.1172C26.5396 11.1172 26.147 11.0078 25.7876 10.7891C25.4321 10.5703 25.147 10.2793 24.9321 9.91602C24.7212 9.54883 24.6157 9.14648 24.6157 8.70898V8.1582C24.6157 8.11523 24.6353 8.09375 24.6743 8.09375H26.022C26.0532 8.09375 26.0688 8.11523 26.0688 8.1582V8.70898C26.0688 8.9707 26.1567 9.19727 26.3325 9.38867C26.5083 9.57617 26.7192 9.66992 26.9653 9.66992C27.2153 9.66992 27.4282 9.57422 27.604 9.38281C27.7798 9.1875 27.8677 8.96289 27.8677 8.70898C27.8677 8.41602 27.6763 8.16016 27.2935 7.94141C27.231 7.90234 27.1489 7.85547 27.0474 7.80078C26.9497 7.74219 26.8325 7.67578 26.6958 7.60156C26.5591 7.52734 26.4263 7.45508 26.2974 7.38477C26.1685 7.31055 26.0435 7.24023 25.9224 7.17383C25.4849 6.91602 25.1587 6.59375 24.9438 6.20703C24.7329 5.81641 24.6274 5.37891 24.6274 4.89453C24.6274 4.44922 24.7368 4.04688 24.9556 3.6875C25.1743 3.33203 25.4595 3.05078 25.811 2.84375C26.1665 2.63281 26.5513 2.52734 26.9653 2.52734C27.3911 2.52734 27.7817 2.63281 28.1372 2.84375C28.4927 3.05859 28.7759 3.34375 28.9868 3.69922C29.2017 4.05469 29.3091 4.45312 29.3091 4.89453V5.87891C29.3091 5.91016 29.2935 5.92578 29.2622 5.92578H27.9146C27.8833 5.92578 27.8677 5.91016 27.8677 5.87891L27.856 4.89453C27.856 4.61328 27.7681 4.38477 27.5923 4.20898C27.4165 4.0332 27.2075 3.94531 26.9653 3.94531C26.7192 3.94531 26.5083 4.03906 26.3325 4.22656C26.1567 4.41406 26.0688 4.63672 26.0688 4.89453C26.0688 5.15625 26.1235 5.375 26.2329 5.55078C26.3462 5.72656 26.5513 5.89453 26.8481 6.05469C26.8794 6.07031 26.9517 6.10938 27.0649 6.17188C27.1782 6.23438 27.3032 6.30469 27.4399 6.38281C27.5806 6.45703 27.7075 6.52539 27.8208 6.58789C27.9341 6.64648 28.0024 6.68164 28.0259 6.69336C28.4243 6.91602 28.7388 7.18945 28.9692 7.51367C29.2036 7.83789 29.3208 8.23633 29.3208 8.70898C29.3208 9.16602 29.2153 9.57617 29.0044 9.93945C28.7896 10.3027 28.5044 10.5898 28.1489 10.8008C27.7935 11.0117 27.3989 11.1172 26.9653 11.1172ZM32.4087 11H31.0317C31.0044 11 30.9907 10.9844 30.9907 10.9531L31.0024 7.54297L29.397 2.69727C29.3892 2.66602 29.4009 2.65039 29.4321 2.65039H30.7681C30.8071 2.65039 30.8306 2.66602 30.8384 2.69727L31.7231 5.92578L32.6255 2.69727C32.6333 2.66602 32.6528 2.65039 32.6841 2.65039H34.0317C34.063 2.65039 34.0747 2.66602 34.0669 2.69727L32.4438 7.49609L32.4556 10.9531C32.4556 10.9844 32.4399 11 32.4087 11ZM36.5688 11.1172C36.1353 11.1172 35.7388 11.0078 35.3794 10.7891C35.0239 10.5703 34.7407 10.2773 34.5298 9.91016C34.3228 9.53906 34.2192 9.12695 34.2192 8.67383L34.231 4.92969C34.231 4.48438 34.3325 4.08203 34.5356 3.72266C34.7388 3.35938 35.0181 3.06836 35.3735 2.84961C35.7329 2.62695 36.1313 2.51562 36.5688 2.51562C37.0142 2.51562 37.4106 2.62305 37.7583 2.83789C38.1099 3.05273 38.3892 3.34375 38.5962 3.71094C38.8071 4.07422 38.9126 4.48047 38.9126 4.92969V5.48047C38.9126 5.51172 38.897 5.52734 38.8657 5.52734H37.5181C37.4868 5.52734 37.4712 5.51172 37.4712 5.48047V4.92969C37.4712 4.66406 37.3853 4.43555 37.2134 4.24414C37.0415 4.05273 36.8267 3.95703 36.5688 3.95703C36.2837 3.95703 36.0649 4.05469 35.9126 4.25C35.7603 4.44531 35.6841 4.67188 35.6841 4.92969V8.67383C35.6841 8.9668 35.77 9.20703 35.9419 9.39453C36.1138 9.57812 36.3228 9.66992 36.5688 9.66992C36.8267 9.66992 37.0415 9.56836 37.2134 9.36523C37.3853 9.1582 37.4712 8.92773 37.4712 8.67383V8.11719C37.4712 8.08594 37.4868 8.07031 37.5181 8.07031H38.8774C38.9087 8.07031 38.9243 8.08594 38.9243 8.11719V8.67383C38.9243 9.12305 38.8188 9.5332 38.6079 9.9043C38.3931 10.2715 38.1099 10.5664 37.7583 10.7891C37.4067 11.0078 37.0103 11.1172 36.5688 11.1172ZM41.8364 11.1172C41.4106 11.1172 41.0181 11.0078 40.6587 10.7891C40.3032 10.5703 40.0181 10.2793 39.8032 9.91602C39.5923 9.54883 39.4868 9.14648 39.4868 8.70898V8.1582C39.4868 8.11523 39.5063 8.09375 39.5454 8.09375H40.8931C40.9243 8.09375 40.9399 8.11523 40.9399 8.1582V8.70898C40.9399 8.9707 41.0278 9.19727 41.2036 9.38867C41.3794 9.57617 41.5903 9.66992 41.8364 9.66992C42.0864 9.66992 42.2993 9.57422 42.4751 9.38281C42.6509 9.1875 42.7388 8.96289 42.7388 8.70898C42.7388 8.41602 42.5474 8.16016 42.1646 7.94141C42.1021 7.90234 42.02 7.85547 41.9185 7.80078C41.8208 7.74219 41.7036 7.67578 41.5669 7.60156C41.4302 7.52734 41.2974 7.45508 41.1685 7.38477C41.0396 7.31055 40.9146 7.24023 40.7935 7.17383C40.356 6.91602 40.0298 6.59375 39.8149 6.20703C39.604 5.81641 39.4985 5.37891 39.4985 4.89453C39.4985 4.44922 39.6079 4.04688 39.8267 3.6875C40.0454 3.33203 40.3306 3.05078 40.6821 2.84375C41.0376 2.63281 41.4224 2.52734 41.8364 2.52734C42.2622 2.52734 42.6528 2.63281 43.0083 2.84375C43.3638 3.05859 43.647 3.34375 43.8579 3.69922C44.0728 4.05469 44.1802 4.45312 44.1802 4.89453V5.87891C44.1802 5.91016 44.1646 5.92578 44.1333 5.92578H42.7856C42.7544 5.92578 42.7388 5.91016 42.7388 5.87891L42.7271 4.89453C42.7271 4.61328 42.6392 4.38477 42.4634 4.20898C42.2876 4.0332 42.0786 3.94531 41.8364 3.94531C41.5903 3.94531 41.3794 4.03906 41.2036 4.22656C41.0278 4.41406 40.9399 4.63672 40.9399 4.89453C40.9399 5.15625 40.9946 5.375 41.104 5.55078C41.2173 5.72656 41.4224 5.89453 41.7192 6.05469C41.7505 6.07031 41.8228 6.10938 41.936 6.17188C42.0493 6.23438 42.1743 6.30469 42.311 6.38281C42.4517 6.45703 42.5786 6.52539 42.6919 6.58789C42.8052 6.64648 42.8735 6.68164 42.897 6.69336C43.2954 6.91602 43.6099 7.18945 43.8403 7.51367C44.0747 7.83789 44.1919 8.23633 44.1919 8.70898C44.1919 9.16602 44.0864 9.57617 43.8755 9.93945C43.6606 10.3027 43.3755 10.5898 43.02 10.8008C42.6646 11.0117 42.27 11.1172 41.8364 11.1172Z" fill="black"/>
<path d="M25.7876 10.7891L25.5255 11.2149L25.5276 11.2162L25.7876 10.7891ZM24.9321 9.91602L24.4985 10.1651L24.5018 10.1705L24.9321 9.91602ZM26.3325 9.38867L25.9642 9.72689L25.9678 9.73064L26.3325 9.38867ZM27.604 9.38281L27.9723 9.72103L27.9757 9.71729L27.604 9.38281ZM27.2935 7.94141L27.0285 8.36541L27.0368 8.37063L27.0454 8.37553L27.2935 7.94141ZM27.0474 7.80078L26.7901 8.22953L26.8001 8.23551L26.8103 8.24102L27.0474 7.80078ZM26.2974 7.38477L26.0478 7.81819L26.0579 7.82371L26.2974 7.38477ZM25.9224 7.17383L25.6685 7.6046L25.6752 7.60852L25.6819 7.61223L25.9224 7.17383ZM24.9438 6.20703L24.5039 6.44462L24.5068 6.44985L24.9438 6.20703ZM24.9556 3.6875L24.5297 3.42545L24.5285 3.42753L24.9556 3.6875ZM25.811 2.84375L26.0648 3.2746L26.0662 3.27374L25.811 2.84375ZM28.1372 2.84375L28.3958 2.41582L28.3924 2.41376L28.1372 2.84375ZM28.9868 3.69922L28.5568 3.95439L28.5589 3.95785L28.9868 3.69922ZM27.8677 5.87891H28.3677L28.3676 5.87295L27.8677 5.87891ZM27.856 4.89453H27.3559L27.356 4.90048L27.856 4.89453ZM26.2329 5.55078L25.8083 5.81497L25.8126 5.82163L26.2329 5.55078ZM26.8481 6.05469L26.6107 6.49474L26.6176 6.49843L26.6245 6.5019L26.8481 6.05469ZM27.4399 6.38281L27.1919 6.81693L27.1991 6.82109L27.2066 6.82501L27.4399 6.38281ZM27.8208 6.58789L27.5792 7.02584L27.5911 7.032L27.8208 6.58789ZM28.0259 6.69336L28.2698 6.25689L28.2598 6.25128L28.2495 6.24615L28.0259 6.69336ZM28.9692 7.51367L28.5617 7.80337L28.564 7.8066L28.9692 7.51367ZM29.0044 9.93945L29.4348 10.194L29.4368 10.1905L29.0044 9.93945ZM26.9653 11.1172V10.6172C26.6301 10.6172 26.3276 10.5324 26.0476 10.362L25.7876 10.7891L25.5276 11.2162C25.9663 11.4832 26.449 11.6172 26.9653 11.6172V11.1172ZM25.7876 10.7891L26.0496 10.3632C25.7642 10.1876 25.5365 9.95566 25.3625 9.6615L24.9321 9.91602L24.5018 10.1705C24.7575 10.6029 25.1001 10.9531 25.5255 11.2149L25.7876 10.7891ZM24.9321 9.91602L25.3657 9.66695C25.1998 9.37813 25.1157 9.06211 25.1157 8.70898H24.6157H24.1157C24.1157 9.23086 24.2426 9.71952 24.4986 10.1651L24.9321 9.91602ZM24.6157 8.70898H25.1157V8.1582H24.6157H24.1157V8.70898H24.6157ZM24.6157 8.1582H25.1157C25.1157 8.20263 25.1066 8.32926 25.0003 8.4462C24.8858 8.57218 24.7448 8.59375 24.6743 8.59375V8.09375V7.59375C24.5648 7.59375 24.3945 7.62606 24.2604 7.77353C24.1346 7.91195 24.1157 8.07081 24.1157 8.1582H24.6157ZM24.6743 8.09375V8.59375H26.022V8.09375V7.59375H24.6743V8.09375ZM26.022 8.09375V8.59375C25.9097 8.59375 25.7564 8.54651 25.6528 8.40395C25.5706 8.29097 25.5688 8.18246 25.5688 8.1582H26.0688H26.5688C26.5688 8.09098 26.5593 7.95024 26.4615 7.81578C26.3422 7.65173 26.1655 7.59375 26.022 7.59375V8.09375ZM26.0688 8.1582H25.5688V8.70898H26.0688H26.5688V8.1582H26.0688ZM26.0688 8.70898H25.5688C25.5688 9.09497 25.7031 9.44249 25.9643 9.72687L26.3325 9.38867L26.7008 9.05047C26.6104 8.95204 26.5688 8.84643 26.5688 8.70898H26.0688ZM26.3325 9.38867L25.9678 9.73064C26.2333 10.0139 26.5743 10.1699 26.9653 10.1699V9.66992V9.16992C26.8642 9.16992 26.7833 9.13841 26.6973 9.0467L26.3325 9.38867ZM26.9653 9.66992V10.1699C27.3615 10.1699 27.706 10.0109 27.9723 9.72101L27.604 9.38281L27.2357 9.04461C27.1504 9.13752 27.0692 9.16992 26.9653 9.16992V9.66992ZM27.604 9.38281L27.9757 9.71729C28.2309 9.43369 28.3677 9.09107 28.3677 8.70898H27.8677H27.3677C27.3677 8.83471 27.3287 8.94131 27.2324 9.04833L27.604 9.38281ZM27.8677 8.70898H28.3677C28.3677 8.15602 27.9946 7.76616 27.5415 7.50728L27.2935 7.94141L27.0454 8.37553C27.358 8.55415 27.3677 8.67601 27.3677 8.70898H27.8677ZM27.2935 7.94141L27.5585 7.51741C27.4832 7.47039 27.3908 7.41784 27.2844 7.36055L27.0474 7.80078L26.8103 8.24102C26.907 8.2931 26.9787 8.3343 27.0285 8.36541L27.2935 7.94141ZM27.0474 7.80078L27.3046 7.37204C27.199 7.30869 27.0753 7.23864 26.9343 7.16214L26.6958 7.60156L26.4573 8.04099C26.5898 8.11292 26.7004 8.17568 26.7901 8.22953L27.0474 7.80078ZM26.6958 7.60156L26.9343 7.16214C26.7979 7.08807 26.6654 7.01596 26.5368 6.94582L26.2974 7.38477L26.0579 7.82371C26.1872 7.89419 26.3203 7.96662 26.4573 8.04099L26.6958 7.60156ZM26.2974 7.38477L26.5468 6.95145C26.4152 6.87564 26.2871 6.80362 26.1628 6.73542L25.9224 7.17383L25.6819 7.61223C25.7998 7.67685 25.9218 7.74546 26.0479 7.81808L26.2974 7.38477ZM25.9224 7.17383L26.1762 6.74306C25.8039 6.52367 25.5465 6.26216 25.3809 5.96421L24.9438 6.20703L24.5068 6.44985C24.7709 6.92534 25.1658 7.30837 25.6685 7.6046L25.9224 7.17383ZM24.9438 6.20703L25.3838 5.96946C25.2158 5.65833 25.1274 5.30369 25.1274 4.89453H24.6274H24.1274C24.1274 5.45412 24.25 5.97448 24.5039 6.44461L24.9438 6.20703ZM24.6274 4.89453H25.1274C25.1274 4.53533 25.2144 4.22387 25.3827 3.94747L24.9556 3.6875L24.5285 3.42753C24.2592 3.86988 24.1274 4.36311 24.1274 4.89453H24.6274ZM24.9556 3.6875L25.3814 3.94955C25.5584 3.66188 25.7851 3.43926 26.0648 3.27459L25.811 2.84375L25.5573 2.41291C25.1338 2.6623 24.7902 3.00219 24.5297 3.42545L24.9556 3.6875ZM25.811 2.84375L26.0662 3.27374C26.3443 3.10871 26.6409 3.02734 26.9653 3.02734V2.52734V2.02734C26.4616 2.02734 25.9887 2.15691 25.5559 2.41376L25.811 2.84375ZM26.9653 2.52734V3.02734C27.3041 3.02734 27.6062 3.11005 27.882 3.27374L28.1372 2.84375L28.3924 2.41376C27.9573 2.15557 27.4781 2.02734 26.9653 2.02734V2.52734ZM28.1372 2.84375L27.8786 3.27166C28.1639 3.44413 28.3881 3.67009 28.5568 3.95438L28.9868 3.69922L29.4168 3.44406C29.1636 3.01741 28.8214 2.67306 28.3958 2.41584L28.1372 2.84375ZM28.9868 3.69922L28.5589 3.95785C28.7236 4.23035 28.8091 4.53834 28.8091 4.89453H29.3091H29.8091C29.8091 4.36791 29.6797 3.87903 29.4147 3.44059L28.9868 3.69922ZM29.3091 4.89453H28.8091V5.87891H29.3091H29.8091V4.89453H29.3091ZM29.3091 5.87891H28.8091C28.8091 5.81746 28.8248 5.67954 28.9438 5.56051C29.0628 5.44148 29.2008 5.42578 29.2622 5.42578V5.92578V6.42578C29.3549 6.42578 29.5163 6.40227 29.6509 6.26762C29.7856 6.13296 29.8091 5.9716 29.8091 5.87891H29.3091ZM29.2622 5.92578V5.42578H27.9146V5.92578V6.42578H29.2622V5.92578ZM27.9146 5.92578V5.42578C27.976 5.42578 28.1139 5.44148 28.2329 5.56051C28.352 5.67954 28.3677 5.81746 28.3677 5.87891H27.8677H27.3677C27.3677 5.9716 27.3912 6.13296 27.5258 6.26762C27.6605 6.40227 27.8219 6.42578 27.9146 6.42578V5.92578ZM27.8677 5.87891L28.3676 5.87295L28.3559 4.88858L27.856 4.89453L27.356 4.90048L27.3677 5.88486L27.8677 5.87891ZM27.856 4.89453H28.356C28.356 4.49966 28.228 4.1376 27.9458 3.85543L27.5923 4.20898L27.2387 4.56254C27.3081 4.63193 27.356 4.72691 27.356 4.89453H27.856ZM27.5923 4.20898L27.9458 3.85543C27.6791 3.58866 27.344 3.44531 26.9653 3.44531V3.94531V4.44531C27.071 4.44531 27.1539 4.47775 27.2387 4.56254L27.5923 4.20898ZM26.9653 3.94531V3.44531C26.5743 3.44531 26.2333 3.6013 25.9678 3.88459L26.3325 4.22656L26.6973 4.56853C26.7833 4.47682 26.8642 4.44531 26.9653 4.44531V3.94531ZM26.3325 4.22656L25.9678 3.88459C25.7048 4.16509 25.5688 4.51013 25.5688 4.89453H26.0688H26.5688C26.5688 4.76331 26.6087 4.66304 26.6973 4.56853L26.3325 4.22656ZM26.0688 4.89453H25.5688C25.5688 5.22517 25.6382 5.54141 25.8084 5.81493L26.2329 5.55078L26.6574 5.28663C26.6089 5.20859 26.5688 5.08733 26.5688 4.89453H26.0688ZM26.2329 5.55078L25.8126 5.82163C25.9914 6.09912 26.2804 6.31652 26.6107 6.49474L26.8481 6.05469L27.0855 5.61464C26.8222 5.47255 26.7009 5.35401 26.6532 5.27993L26.2329 5.55078ZM26.8481 6.05469L26.6245 6.5019C26.6448 6.51203 26.7073 6.5456 26.8234 6.60966L27.0649 6.17188L27.3065 5.73409C27.196 5.67315 27.114 5.62859 27.0718 5.60747L26.8481 6.05469ZM27.0649 6.17188L26.8234 6.60966C26.9341 6.67073 27.0569 6.73979 27.1919 6.81693L27.4399 6.38281L27.688 5.94869C27.5496 5.86958 27.4224 5.79802 27.3065 5.73409L27.0649 6.17188ZM27.4399 6.38281L27.2066 6.82501C27.345 6.89809 27.4692 6.96496 27.5793 7.02568L27.8208 6.58789L28.0623 6.1501C27.9458 6.08582 27.8161 6.01597 27.6733 5.94062L27.4399 6.38281ZM27.8208 6.58789L27.5911 7.032C27.7028 7.0898 27.775 7.12693 27.8023 7.14057L28.0259 6.69336L28.2495 6.24615C28.2299 6.23635 28.1653 6.20317 28.0505 6.14378L27.8208 6.58789ZM28.0259 6.69336L27.782 7.12983C28.1252 7.32164 28.3801 7.54792 28.5617 7.80336L28.9692 7.51367L29.3768 7.22398C29.0974 6.83099 28.7234 6.5104 28.2698 6.25689L28.0259 6.69336ZM28.9692 7.51367L28.564 7.8066C28.7262 8.03093 28.8208 8.32187 28.8208 8.70898H29.3208H29.8208C29.8208 8.15079 29.681 7.64485 29.3744 7.22075L28.9692 7.51367ZM29.3208 8.70898H28.8208C28.8208 9.08582 28.7348 9.408 28.572 9.68839L29.0044 9.93945L29.4368 10.1905C29.6959 9.74435 29.8208 9.24621 29.8208 8.70898H29.3208ZM29.0044 9.93945L28.574 9.68493C28.401 9.97753 28.1755 10.2036 27.8938 10.3708L28.1489 10.8008L28.4041 11.2308C28.8333 10.9761 29.1781 10.6279 29.4348 10.194L29.0044 9.93945ZM28.1489 10.8008L27.8938 10.3708C27.6194 10.5336 27.3137 10.6172 26.9653 10.6172V11.1172V11.6172C27.4841 11.6172 27.9675 11.4898 28.4041 11.2308L28.1489 10.8008ZM30.9907 10.9531L30.4907 10.9514V10.9531H30.9907ZM31.0024 7.54297L31.5024 7.54469L31.5027 7.46313L31.4771 7.38572L31.0024 7.54297ZM29.397 2.69727L28.9119 2.81853L28.9164 2.83672L28.9223 2.85452L29.397 2.69727ZM30.8384 2.69727L30.3532 2.81856L30.3562 2.82942L30.8384 2.69727ZM31.7231 5.92578L31.2409 6.05793L31.7184 7.80026L32.2047 6.06037L31.7231 5.92578ZM32.6255 2.69727L33.1072 2.8319L33.1106 2.81853L32.6255 2.69727ZM34.0669 2.69727L34.5405 2.85746L34.547 2.83823L34.552 2.81853L34.0669 2.69727ZM32.4438 7.49609L31.9702 7.3359L31.9436 7.41465L31.9439 7.49779L32.4438 7.49609ZM32.4556 10.9531H32.9556L32.9556 10.9514L32.4556 10.9531ZM32.4087 11V10.5H31.0317V11V11.5H32.4087V11ZM31.0317 11V10.5C31.1138 10.5 31.2613 10.5265 31.3773 10.659C31.482 10.7788 31.4907 10.9069 31.4907 10.9531H30.9907H30.4907C30.4907 11.0306 30.5062 11.1822 30.6247 11.3175C30.7543 11.4657 30.9223 11.5 31.0317 11.5V11ZM30.9907 10.9531L31.4907 10.9548L31.5024 7.54469L31.0024 7.54297L30.5024 7.54125L30.4907 10.9514L30.9907 10.9531ZM31.0024 7.54297L31.4771 7.38572L29.8716 2.54001L29.397 2.69727L28.9223 2.85452L30.5278 7.70022L31.0024 7.54297ZM29.397 2.69727L29.882 2.576C29.8914 2.61332 29.9294 2.78939 29.7999 2.96211C29.666 3.14069 29.4786 3.15039 29.4321 3.15039V2.65039V2.15039C29.3544 2.15039 29.1456 2.16791 28.9999 2.36211C28.8586 2.55045 28.8948 2.74996 28.9119 2.81853L29.397 2.69727ZM29.4321 2.65039V3.15039H30.7681V2.65039V2.15039H29.4321V2.65039ZM30.7681 2.65039V3.15039C30.7258 3.15039 30.6341 3.14248 30.5376 3.07813C30.4309 3.00703 30.3749 2.90503 30.3533 2.81853L30.8384 2.69727L31.3235 2.576C31.294 2.45825 31.2224 2.33281 31.0923 2.24608C30.9723 2.16611 30.8494 2.15039 30.7681 2.15039V2.65039ZM30.8384 2.69727L30.3562 2.82942L31.2409 6.05793L31.7231 5.92578L32.2054 5.79363L31.3206 2.56511L30.8384 2.69727ZM31.7231 5.92578L32.2047 6.06037L33.107 2.83185L32.6255 2.69727L32.1439 2.56268L31.2416 5.79119L31.7231 5.92578ZM32.6255 2.69727L33.1106 2.81853C33.0956 2.87834 33.0559 2.97449 32.9583 3.05254C32.8592 3.13186 32.753 3.15039 32.6841 3.15039V2.65039V2.15039C32.5839 2.15039 32.4523 2.17674 32.3336 2.27168C32.2165 2.36536 32.1632 2.48494 32.1404 2.576L32.6255 2.69727ZM32.6841 2.65039V3.15039H34.0317V2.65039V2.15039H32.6841V2.65039ZM34.0317 2.65039V3.15039C33.9852 3.15039 33.7979 3.14069 33.664 2.96211C33.5344 2.78939 33.5725 2.61332 33.5818 2.576L34.0669 2.69727L34.552 2.81853C34.5691 2.74996 34.6052 2.55045 34.464 2.36211C34.3183 2.16791 34.1095 2.15039 34.0317 2.15039V2.65039ZM34.0669 2.69727L33.5933 2.53707L31.9702 7.3359L32.4438 7.49609L32.9175 7.65629L34.5405 2.85746L34.0669 2.69727ZM32.4438 7.49609L31.9439 7.49779L31.9556 10.9548L32.4556 10.9531L32.9556 10.9514L32.9438 7.4944L32.4438 7.49609ZM32.4556 10.9531H31.9556C31.9556 10.8917 31.9713 10.7538 32.0903 10.6347C32.2093 10.5157 32.3472 10.5 32.4087 10.5V11V11.5C32.5014 11.5 32.6627 11.4765 32.7974 11.3418C32.9321 11.2072 32.9556 11.0458 32.9556 10.9531H32.4556ZM35.3794 10.7891L35.1173 11.2149L35.1194 11.2162L35.3794 10.7891ZM34.5298 9.91016L34.0931 10.1538L34.0962 10.1592L34.5298 9.91016ZM34.2192 8.67383L33.7192 8.67226V8.67383H34.2192ZM34.231 4.92969L34.731 4.93125V4.92969H34.231ZM34.5356 3.72266L34.9709 3.96869L34.9721 3.96667L34.5356 3.72266ZM35.3735 2.84961L35.6356 3.27544L35.6369 3.27464L35.3735 2.84961ZM37.7583 2.83789L37.4954 3.26323L37.4976 3.26453L37.7583 2.83789ZM38.5962 3.71094L38.1606 3.95653L38.1638 3.96201L38.5962 3.71094ZM35.9419 9.39453L35.5733 9.73241L35.5769 9.73624L35.9419 9.39453ZM37.2134 9.36523L37.5951 9.68822L37.5981 9.68461L37.2134 9.36523ZM38.6079 9.9043L39.0395 10.1568L39.0426 10.1514L38.6079 9.9043ZM37.7583 10.7891L38.0225 11.2136L38.0258 11.2115L37.7583 10.7891ZM36.5688 11.1172V10.6172C36.224 10.6172 35.9179 10.5315 35.6394 10.362L35.3794 10.7891L35.1194 11.2162C35.5596 11.4841 36.0465 11.6172 36.5688 11.6172V11.1172ZM35.3794 10.7891L35.6414 10.3632C35.3581 10.1888 35.1334 9.95708 34.9633 9.66109L34.5298 9.91016L34.0962 10.1592C34.3481 10.5976 34.6898 10.9518 35.1173 11.2149L35.3794 10.7891ZM34.5298 9.91016L34.9664 9.66655C34.8037 9.37487 34.7192 9.04752 34.7192 8.67383H34.2192H33.7192C33.7192 9.20638 33.8418 9.70325 34.0931 10.1538L34.5298 9.91016ZM34.2192 8.67383L34.7192 8.67539L34.731 4.93125L34.231 4.92969L33.731 4.92812L33.7192 8.67226L34.2192 8.67383ZM34.231 4.92969H34.731C34.731 4.56359 34.8135 4.24714 34.9709 3.96868L34.5356 3.72266L34.1004 3.47663C33.8515 3.91693 33.731 4.40516 33.731 4.92969H34.231ZM34.5356 3.72266L34.9721 3.96667C35.1334 3.6781 35.3526 3.44959 35.6356 3.27544L35.3735 2.84961L35.1115 2.42378C34.6835 2.68713 34.3441 3.04065 34.0992 3.47864L34.5356 3.72266ZM35.3735 2.84961L35.6369 3.27464C35.9143 3.10276 36.221 3.01562 36.5688 3.01562V2.51562V2.01562C36.0417 2.01562 35.5515 2.15115 35.1102 2.42457L35.3735 2.84961ZM36.5688 2.51562V3.01562C36.9299 3.01562 37.2338 3.10154 37.4955 3.26323L37.7583 2.83789L38.0211 2.41255C37.5875 2.14456 37.0984 2.01562 36.5688 2.01562V2.51562ZM37.7583 2.83789L37.4976 3.26453C37.7746 3.43385 37.9945 3.6618 38.1607 3.95651L38.5962 3.71094L39.0317 3.46537C38.7838 3.0257 38.4451 2.67162 38.019 2.41125L37.7583 2.83789ZM38.5962 3.71094L38.1638 3.96201C38.3274 4.24373 38.4126 4.56232 38.4126 4.92969H38.9126H39.4126C39.4126 4.39862 39.2869 3.90471 39.0286 3.45987L38.5962 3.71094ZM38.9126 4.92969H38.4126V5.48047H38.9126H39.4126V4.92969H38.9126ZM38.9126 5.48047H38.4126C38.4126 5.41902 38.4283 5.2811 38.5473 5.16207C38.6664 5.04304 38.8043 5.02734 38.8657 5.02734V5.52734V6.02734C38.9584 6.02734 39.1198 6.00383 39.2544 5.86918C39.3891 5.73453 39.4126 5.57317 39.4126 5.48047H38.9126ZM38.8657 5.52734V5.02734H37.5181V5.52734V6.02734H38.8657V5.52734ZM37.5181 5.52734V5.02734C37.5795 5.02734 37.7174 5.04304 37.8365 5.16207C37.9555 5.2811 37.9712 5.41902 37.9712 5.48047H37.4712H36.9712C36.9712 5.57317 36.9947 5.73453 37.1294 5.86918C37.264 6.00383 37.4254 6.02734 37.5181 6.02734V5.52734ZM37.4712 5.48047H37.9712V4.92969H37.4712H36.9712V5.48047H37.4712ZM37.4712 4.92969H37.9712C37.9712 4.54515 37.8426 4.19648 37.5854 3.91008L37.2134 4.24414L36.8414 4.5782C36.9279 4.67462 36.9712 4.78297 36.9712 4.92969H37.4712ZM37.2134 4.24414L37.5854 3.91008C37.3185 3.6128 36.9682 3.45703 36.5688 3.45703V3.95703V4.45703C36.6851 4.45703 36.7646 4.49267 36.8414 4.5782L37.2134 4.24414ZM36.5688 3.95703V3.45703C36.156 3.45703 35.7805 3.60634 35.5183 3.94248L35.9126 4.25L36.3068 4.55752C36.3493 4.50303 36.4114 4.45703 36.5688 4.45703V3.95703ZM35.9126 4.25L35.5183 3.94248C35.2945 4.22944 35.1841 4.56535 35.1841 4.92969H35.6841H36.1841C36.1841 4.7784 36.226 4.66118 36.3068 4.55752L35.9126 4.25ZM35.6841 4.92969H35.1841V8.67383H35.6841H36.1841V4.92969H35.6841ZM35.6841 8.67383H35.1841C35.1841 9.07158 35.3041 9.43872 35.5733 9.73239L35.9419 9.39453L36.3105 9.05667C36.2359 8.97534 36.1841 8.86202 36.1841 8.67383H35.6841ZM35.9419 9.39453L35.5769 9.73624C35.8409 10.0183 36.181 10.1699 36.5688 10.1699V9.66992V9.16992C36.4645 9.16992 36.3866 9.13794 36.3069 9.05282L35.9419 9.39453ZM36.5688 9.66992V10.1699C36.9791 10.1699 37.3317 9.99946 37.5951 9.68821L37.2134 9.36523L36.8317 9.04226C36.7513 9.13725 36.6742 9.16992 36.5688 9.16992V9.66992ZM37.2134 9.36523L37.5981 9.68461C37.8397 9.39362 37.9712 9.0517 37.9712 8.67383H37.4712H36.9712C36.9712 8.80377 36.9308 8.92278 36.8287 9.04586L37.2134 9.36523ZM37.4712 8.67383H37.9712V8.11719H37.4712H36.9712V8.67383H37.4712ZM37.4712 8.11719H37.9712C37.9712 8.17863 37.9555 8.31656 37.8365 8.43559C37.7174 8.55461 37.5795 8.57031 37.5181 8.57031V8.07031V7.57031C37.4254 7.57031 37.264 7.59383 37.1294 7.72848C36.9947 7.86313 36.9712 8.02449 36.9712 8.11719H37.4712ZM37.5181 8.07031V8.57031H38.8774V8.07031V7.57031H37.5181V8.07031ZM38.8774 8.07031V8.57031C38.816 8.57031 38.6781 8.55461 38.559 8.43559C38.44 8.31656 38.4243 8.17863 38.4243 8.11719H38.9243H39.4243C39.4243 8.02449 39.4008 7.86313 39.2662 7.72848C39.1315 7.59383 38.9701 7.57031 38.8774 7.57031V8.07031ZM38.9243 8.11719H38.4243V8.67383H38.9243H39.4243V8.11719H38.9243ZM38.9243 8.67383H38.4243C38.4243 9.04113 38.3391 9.36543 38.1732 9.65721L38.6079 9.9043L39.0426 10.1514C39.2986 9.70098 39.4243 9.20496 39.4243 8.67383H38.9243ZM38.6079 9.9043L38.1764 9.65179C38.0009 9.95165 37.7733 10.1877 37.4908 10.3667L37.7583 10.7891L38.0258 11.2115C38.4464 10.9451 38.7852 10.5913 39.0395 10.1568L38.6079 9.9043ZM37.7583 10.7891L37.4942 10.3645C37.2272 10.5307 36.9233 10.6172 36.5688 10.6172V11.1172V11.6172C37.0972 11.6172 37.5863 11.485 38.0225 11.2136L37.7583 10.7891ZM40.6587 10.7891L40.3966 11.2149L40.3987 11.2162L40.6587 10.7891ZM39.8032 9.91602L39.3696 10.1651L39.3729 10.1705L39.8032 9.91602ZM41.2036 9.38867L40.8353 9.72689L40.8388 9.73064L41.2036 9.38867ZM42.4751 9.38281L42.8434 9.72103L42.8467 9.71729L42.4751 9.38281ZM42.1646 7.94141L41.8996 8.36541L41.9079 8.37063L41.9165 8.37553L42.1646 7.94141ZM41.9185 7.80078L41.6612 8.22953L41.6712 8.23551L41.6814 8.24102L41.9185 7.80078ZM41.1685 7.38477L40.9189 7.81819L40.929 7.82371L41.1685 7.38477ZM40.7935 7.17383L40.5396 7.6046L40.5463 7.60852L40.553 7.61223L40.7935 7.17383ZM39.8149 6.20703L39.375 6.44462L39.3779 6.44985L39.8149 6.20703ZM39.8267 3.6875L39.4008 3.42545L39.3996 3.42753L39.8267 3.6875ZM40.6821 2.84375L40.9359 3.2746L40.9373 3.27374L40.6821 2.84375ZM43.0083 2.84375L43.2669 2.41582L43.2635 2.41376L43.0083 2.84375ZM43.8579 3.69922L43.4279 3.95439L43.43 3.95785L43.8579 3.69922ZM42.7388 5.87891H43.2388L43.2387 5.87295L42.7388 5.87891ZM42.7271 4.89453H42.227L42.2271 4.90048L42.7271 4.89453ZM41.104 5.55078L40.6794 5.81497L40.6837 5.82163L41.104 5.55078ZM41.7192 6.05469L41.4818 6.49474L41.4887 6.49843L41.4956 6.5019L41.7192 6.05469ZM42.311 6.38281L42.063 6.81693L42.0702 6.82109L42.0777 6.82501L42.311 6.38281ZM42.6919 6.58789L42.4503 7.02584L42.4622 7.032L42.6919 6.58789ZM42.897 6.69336L43.1409 6.25689L43.1309 6.25128L43.1206 6.24615L42.897 6.69336ZM43.8403 7.51367L43.4328 7.80337L43.4351 7.8066L43.8403 7.51367ZM43.8755 9.93945L44.3059 10.194L44.3079 10.1905L43.8755 9.93945ZM41.8364 11.1172V10.6172C41.5012 10.6172 41.1987 10.5324 40.9187 10.362L40.6587 10.7891L40.3987 11.2162C40.8374 11.4832 41.3201 11.6172 41.8364 11.6172V11.1172ZM40.6587 10.7891L40.9207 10.3632C40.6353 10.1876 40.4076 9.95566 40.2336 9.6615L39.8032 9.91602L39.3729 10.1705C39.6286 10.6029 39.9712 10.9531 40.3966 11.2149L40.6587 10.7891ZM39.8032 9.91602L40.2368 9.66695C40.0709 9.37813 39.9868 9.06211 39.9868 8.70898H39.4868H38.9868C38.9868 9.23086 39.1137 9.71952 39.3697 10.1651L39.8032 9.91602ZM39.4868 8.70898H39.9868V8.1582H39.4868H38.9868V8.70898H39.4868ZM39.4868 8.1582H39.9868C39.9868 8.20263 39.9777 8.32926 39.8714 8.4462C39.7569 8.57218 39.6159 8.59375 39.5454 8.59375V8.09375V7.59375C39.4359 7.59375 39.2656 7.62606 39.1315 7.77353C39.0057 7.91195 38.9868 8.07081 38.9868 8.1582H39.4868ZM39.5454 8.09375V8.59375H40.8931V8.09375V7.59375H39.5454V8.09375ZM40.8931 8.09375V8.59375C40.7808 8.59375 40.6275 8.54651 40.5239 8.40395C40.4417 8.29097 40.4399 8.18246 40.4399 8.1582H40.9399H41.4399C41.4399 8.09098 41.4304 7.95024 41.3326 7.81578C41.2133 7.65173 41.0366 7.59375 40.8931 7.59375V8.09375ZM40.9399 8.1582H40.4399V8.70898H40.9399H41.4399V8.1582H40.9399ZM40.9399 8.70898H40.4399C40.4399 9.09497 40.5742 9.44249 40.8353 9.72687L41.2036 9.38867L41.5719 9.05047C41.4815 8.95204 41.4399 8.84643 41.4399 8.70898H40.9399ZM41.2036 9.38867L40.8388 9.73064C41.1044 10.0139 41.4454 10.1699 41.8364 10.1699V9.66992V9.16992C41.7353 9.16992 41.6544 9.13841 41.5684 9.0467L41.2036 9.38867ZM41.8364 9.66992V10.1699C42.2326 10.1699 42.5771 10.0109 42.8434 9.72101L42.4751 9.38281L42.1068 9.04461C42.0215 9.13752 41.9403 9.16992 41.8364 9.16992V9.66992ZM42.4751 9.38281L42.8467 9.71729C43.102 9.43369 43.2388 9.09107 43.2388 8.70898H42.7388H42.2388C42.2388 8.83471 42.1998 8.94131 42.1035 9.04833L42.4751 9.38281ZM42.7388 8.70898H43.2388C43.2388 8.15602 42.8657 7.76616 42.4126 7.50728L42.1646 7.94141L41.9165 8.37553C42.2291 8.55415 42.2388 8.67601 42.2388 8.70898H42.7388ZM42.1646 7.94141L42.4296 7.51741C42.3543 7.47039 42.2619 7.41784 42.1555 7.36055L41.9185 7.80078L41.6814 8.24102C41.7781 8.2931 41.8498 8.3343 41.8996 8.36541L42.1646 7.94141ZM41.9185 7.80078L42.1757 7.37204C42.0701 7.30869 41.9464 7.23864 41.8054 7.16214L41.5669 7.60156L41.3283 8.04099C41.4609 8.11292 41.5715 8.17568 41.6612 8.22953L41.9185 7.80078ZM41.5669 7.60156L41.8054 7.16214C41.669 7.08807 41.5365 7.01596 41.4079 6.94582L41.1685 7.38477L40.929 7.82371C41.0582 7.89419 41.1914 7.96662 41.3283 8.04099L41.5669 7.60156ZM41.1685 7.38477L41.4179 6.95145C41.2863 6.87564 41.1582 6.80362 41.0339 6.73542L40.7935 7.17383L40.553 7.61223C40.6709 7.67685 40.7928 7.74546 40.919 7.81808L41.1685 7.38477ZM40.7935 7.17383L41.0473 6.74306C40.675 6.52367 40.4175 6.26216 40.252 5.96421L39.8149 6.20703L39.3779 6.44985C39.642 6.92534 40.0369 7.30837 40.5396 7.6046L40.7935 7.17383ZM39.8149 6.20703L40.2549 5.96946C40.0869 5.65833 39.9985 5.30369 39.9985 4.89453H39.4985H38.9985C38.9985 5.45412 39.1211 5.97448 39.375 6.44461L39.8149 6.20703ZM39.4985 4.89453H39.9985C39.9985 4.53533 40.0855 4.22387 40.2538 3.94747L39.8267 3.6875L39.3996 3.42753C39.1303 3.86988 38.9985 4.36311 38.9985 4.89453H39.4985ZM39.8267 3.6875L40.2525 3.94955C40.4295 3.66188 40.6562 3.43926 40.9358 3.27459L40.6821 2.84375L40.4284 2.41291C40.0049 2.6623 39.6613 3.00219 39.4008 3.42545L39.8267 3.6875ZM40.6821 2.84375L40.9373 3.27374C41.2154 3.10871 41.512 3.02734 41.8364 3.02734V2.52734V2.02734C41.3327 2.02734 40.8598 2.15691 40.427 2.41376L40.6821 2.84375ZM41.8364 2.52734V3.02734C42.1752 3.02734 42.4773 3.11005 42.7531 3.27374L43.0083 2.84375L43.2635 2.41376C42.8284 2.15557 42.3492 2.02734 41.8364 2.02734V2.52734ZM43.0083 2.84375L42.7497 3.27166C43.035 3.44413 43.2592 3.67009 43.4279 3.95438L43.8579 3.69922L44.2879 3.44406C44.0347 3.01741 43.6925 2.67306 43.2669 2.41584L43.0083 2.84375ZM43.8579 3.69922L43.43 3.95785C43.5947 4.23035 43.6802 4.53834 43.6802 4.89453H44.1802H44.6802C44.6802 4.36791 44.5508 3.87903 44.2858 3.44059L43.8579 3.69922ZM44.1802 4.89453H43.6802V5.87891H44.1802H44.6802V4.89453H44.1802ZM44.1802 5.87891H43.6802C43.6802 5.81746 43.6959 5.67954 43.8149 5.56051C43.9339 5.44148 44.0719 5.42578 44.1333 5.42578V5.92578V6.42578C44.226 6.42578 44.3874 6.40227 44.522 6.26762C44.6567 6.13296 44.6802 5.9716 44.6802 5.87891H44.1802ZM44.1333 5.92578V5.42578H42.7856V5.92578V6.42578H44.1333V5.92578ZM42.7856 5.92578V5.42578C42.8471 5.42578 42.985 5.44148 43.104 5.56051C43.2231 5.67954 43.2388 5.81746 43.2388 5.87891H42.7388H42.2388C42.2388 5.9716 42.2623 6.13296 42.3969 6.26762C42.5316 6.40227 42.6929 6.42578 42.7856 6.42578V5.92578ZM42.7388 5.87891L43.2387 5.87295L43.227 4.88858L42.7271 4.89453L42.2271 4.90048L42.2388 5.88486L42.7388 5.87891ZM42.7271 4.89453H43.2271C43.2271 4.49966 43.0991 4.1376 42.8169 3.85543L42.4634 4.20898L42.1098 4.56254C42.1792 4.63193 42.2271 4.72691 42.2271 4.89453H42.7271ZM42.4634 4.20898L42.8169 3.85543C42.5502 3.58866 42.2151 3.44531 41.8364 3.44531V3.94531V4.44531C41.9421 4.44531 42.025 4.47775 42.1098 4.56254L42.4634 4.20898ZM41.8364 3.94531V3.44531C41.4454 3.44531 41.1044 3.6013 40.8388 3.88459L41.2036 4.22656L41.5684 4.56853C41.6544 4.47682 41.7353 4.44531 41.8364 4.44531V3.94531ZM41.2036 4.22656L40.8388 3.88459C40.5759 4.16509 40.4399 4.51013 40.4399 4.89453H40.9399H41.4399C41.4399 4.76331 41.4798 4.66304 41.5684 4.56853L41.2036 4.22656ZM40.9399 4.89453H40.4399C40.4399 5.22517 40.5093 5.54141 40.6795 5.81493L41.104 5.55078L41.5285 5.28663C41.48 5.20859 41.4399 5.08733 41.4399 4.89453H40.9399ZM41.104 5.55078L40.6837 5.82163C40.8625 6.09912 41.1515 6.31652 41.4818 6.49474L41.7192 6.05469L41.9566 5.61464C41.6932 5.47255 41.572 5.35401 41.5243 5.27993L41.104 5.55078ZM41.7192 6.05469L41.4956 6.5019C41.5159 6.51203 41.5784 6.5456 41.6945 6.60966L41.936 6.17188L42.1776 5.73409C42.0671 5.67315 41.9851 5.62859 41.9428 5.60747L41.7192 6.05469ZM41.936 6.17188L41.6945 6.60966C41.8052 6.67073 41.928 6.73979 42.063 6.81693L42.311 6.38281L42.5591 5.94869C42.4207 5.86958 42.2934 5.79802 42.1776 5.73409L41.936 6.17188ZM42.311 6.38281L42.0777 6.82501C42.2161 6.89809 42.3403 6.96496 42.4504 7.02568L42.6919 6.58789L42.9334 6.1501C42.8169 6.08582 42.6872 6.01597 42.5444 5.94062L42.311 6.38281ZM42.6919 6.58789L42.4622 7.032C42.5739 7.0898 42.6461 7.12693 42.6734 7.14057L42.897 6.69336L43.1206 6.24615C43.101 6.23635 43.0364 6.20317 42.9216 6.14378L42.6919 6.58789ZM42.897 6.69336L42.6531 7.12983C42.9963 7.32164 43.2512 7.54792 43.4328 7.80336L43.8403 7.51367L44.2479 7.22398C43.9685 6.83099 43.5945 6.5104 43.1409 6.25689L42.897 6.69336ZM43.8403 7.51367L43.4351 7.8066C43.5973 8.03093 43.6919 8.32187 43.6919 8.70898H44.1919H44.6919C44.6919 8.15079 44.5521 7.64485 44.2455 7.22075L43.8403 7.51367ZM44.1919 8.70898H43.6919C43.6919 9.08582 43.6059 9.408 43.4431 9.68839L43.8755 9.93945L44.3079 10.1905C44.567 9.74435 44.6919 9.24621 44.6919 8.70898H44.1919ZM43.8755 9.93945L43.4451 9.68493C43.2721 9.97753 43.0465 10.2036 42.7649 10.3708L43.02 10.8008L43.2752 11.2308C43.7044 10.9761 44.0492 10.6279 44.3059 10.194L43.8755 9.93945ZM43.02 10.8008L42.7649 10.3708C42.4905 10.5336 42.1848 10.6172 41.8364 10.6172V11.1172V11.6172C42.3552 11.6172 42.8386 11.4898 43.2752 11.2308L43.02 10.8008Z" fill="white" mask="url(#path-3-outside-2_50_56)"/>
</svg>
