<svg width="1639" height="490" viewBox="0 0 1639 490" fill="none" xmlns="http://www.w3.org/2000/svg">
<path d="M219.646 170.734C221.566 168.996 224.518 169.007 226.425 170.799C229.877 174.044 232.449 177.373 234.916 181.125L236.003 182.768L236.004 182.769C236.794 183.964 237.581 185.16 238.366 186.357C239.472 188.041 240.583 189.723 241.696 191.406L245.043 196.458L245.044 196.46C245.528 197.192 246.013 197.923 246.512 198.677C250.271 204.349 254.071 209.998 257.892 215.645C258.473 216.505 259.055 217.365 259.654 218.251L263.252 223.566V223.567C275.433 241.567 287.464 259.659 299.376 277.833L301.927 281.71C306.775 289.056 311.678 296.354 316.659 303.599C318.658 301.471 320.595 299.296 322.479 297.045L322.486 297.036C322.967 296.464 323.449 295.892 323.944 295.303C327.296 291.307 330.584 287.255 333.838 283.155L333.843 283.148C336.857 279.363 339.894 275.604 342.927 271.859C343.488 271.162 344.05 270.466 344.629 269.748L344.637 269.738C345.439 268.748 345.44 268.747 346.257 267.74C346.735 267.149 347.213 266.557 347.705 265.949C347.732 265.915 347.76 265.883 347.788 265.85C349.32 264.053 350.907 262.421 352.515 260.858L352.703 260.684C353.666 259.839 354.92 259.393 356.207 259.447C357.58 259.504 358.868 260.124 359.771 261.16C366.22 268.566 372.58 276.08 378.661 283.911C381.787 287.924 384.996 291.878 388.25 295.835L391.519 299.796C397.151 306.608 402.723 313.461 408.275 320.31H408.274C410.973 323.637 413.675 326.962 416.38 330.289H416.381L421.256 336.289C421.31 336.356 421.363 336.422 421.417 336.489L421.903 337.086C421.957 337.153 422.011 337.219 422.064 337.286L422.551 337.883C422.605 337.949 422.658 338.016 422.712 338.082L423.198 338.68C423.252 338.746 423.306 338.813 423.359 338.879L423.846 339.477C423.9 339.543 423.953 339.61 424.007 339.676L424.493 340.274C424.547 340.34 424.6 340.407 424.654 340.473L425.141 341.071C425.194 341.137 425.248 341.204 425.302 341.27L425.788 341.868C425.842 341.934 425.895 342.001 425.949 342.067L426.436 342.664C426.489 342.731 426.543 342.797 426.597 342.864L427.083 343.461C427.137 343.528 427.19 343.594 427.244 343.661L427.73 344.258C427.784 344.324 427.838 344.391 427.892 344.457L428.378 345.055C428.432 345.121 428.485 345.188 428.539 345.254L429.025 345.852C429.079 345.918 429.133 345.985 429.187 346.051L429.673 346.649C429.727 346.715 429.78 346.782 429.834 346.848L430.32 347.446C430.374 347.512 430.428 347.579 430.481 347.645L430.968 348.243C431.022 348.309 431.075 348.376 431.129 348.442L431.615 349.039C431.669 349.106 431.723 349.172 431.776 349.239L432.263 349.836C432.317 349.903 432.37 349.969 432.424 350.036L432.91 350.633C432.964 350.699 433.017 350.766 433.071 350.832L433.558 351.43C433.611 351.496 433.665 351.563 433.719 351.629L434.205 352.227C434.259 352.293 434.312 352.36 434.366 352.426L434.853 353.024C434.906 353.09 434.96 353.157 435.014 353.223L435.5 353.821C435.554 353.887 435.607 353.954 435.661 354.02L436.147 354.618C436.201 354.684 436.255 354.751 436.309 354.817L436.795 355.414C436.849 355.481 436.902 355.547 436.956 355.614L437.442 356.211C437.496 356.278 437.55 356.344 437.604 356.411L438.09 357.008C438.144 357.074 438.197 357.141 438.251 357.207L438.737 357.805C438.791 357.871 438.845 357.938 438.898 358.004L439.385 358.602C439.439 358.668 439.492 358.735 439.546 358.801L440.032 359.399C440.086 359.465 440.14 359.532 440.193 359.598L440.68 360.196C440.734 360.262 440.787 360.329 440.841 360.395L441.327 360.993C441.381 361.059 441.434 361.126 441.488 361.192L441.975 361.789C442.028 361.856 442.082 361.922 442.136 361.989L442.622 362.586C442.676 362.653 442.729 362.719 442.783 362.786L443.27 363.383C443.323 363.449 443.377 363.516 443.431 363.582L443.917 364.18C443.971 364.246 444.024 364.313 444.078 364.379L444.564 364.977C444.618 365.043 444.672 365.11 444.726 365.176L445.212 365.774C445.266 365.84 445.319 365.907 445.373 365.973L445.859 366.571C445.913 366.637 445.967 366.704 446.021 366.77L446.507 367.368C446.561 367.434 446.614 367.501 446.668 367.567L447.154 368.164C447.208 368.231 447.262 368.297 447.315 368.364L447.802 368.961C447.856 369.028 447.909 369.094 447.963 369.161L448.449 369.758C448.503 369.824 448.557 369.891 448.61 369.957L449.097 370.555C449.151 370.621 449.204 370.688 449.258 370.754L449.744 371.352C449.798 371.418 449.851 371.485 449.905 371.551L450.392 372.149C450.445 372.215 450.499 372.282 450.553 372.348L451.039 372.946C451.093 373.012 451.146 373.079 451.2 373.145L451.687 373.743C451.74 373.809 451.794 373.876 451.848 373.942L452.334 374.539C452.388 374.606 452.441 374.672 452.495 374.739L452.981 375.336C453.035 375.403 453.089 375.469 453.143 375.536L453.629 376.133C453.683 376.199 453.736 376.266 453.79 376.332L454.276 376.93C454.33 376.996 454.384 377.063 454.438 377.129L454.924 377.727C454.978 377.793 455.031 377.86 455.085 377.926L455.571 378.524C455.625 378.59 455.679 378.657 455.732 378.723L456.219 379.321C456.273 379.387 456.326 379.454 456.38 379.52L456.866 380.118C456.92 380.184 456.974 380.251 457.027 380.317L457.514 380.914C457.568 380.981 457.621 381.047 457.675 381.114L458.161 381.711C458.215 381.778 458.268 381.844 458.322 381.911L458.809 382.508C458.862 382.574 458.916 382.641 458.97 382.707L459.456 383.305C459.51 383.371 459.563 383.438 459.617 383.504L460.104 384.102C460.157 384.168 460.211 384.235 460.265 384.301L460.751 384.899C460.805 384.965 460.858 385.032 460.912 385.098L461.398 385.696C461.452 385.762 461.506 385.829 461.56 385.895L462.046 386.493C462.1 386.559 462.153 386.626 462.207 386.692L462.693 387.289C462.747 387.356 462.801 387.422 462.854 387.489L463.341 388.086C463.395 388.153 463.448 388.219 463.502 388.286L463.988 388.883C464.042 388.949 464.096 389.016 464.149 389.082L464.636 389.68C464.69 389.746 464.743 389.813 464.797 389.879L465.283 390.477C465.337 390.543 465.39 390.61 465.444 390.676L465.931 391.274C465.985 391.34 466.038 391.407 466.092 391.473L466.578 392.071C466.632 392.137 466.685 392.204 466.739 392.27L467.226 392.868C467.279 392.934 467.333 393.001 467.387 393.067L467.873 393.664C467.927 393.731 467.98 393.797 468.034 393.864L468.521 394.461C468.574 394.528 468.628 394.594 468.682 394.661L469.168 395.258C469.222 395.324 469.275 395.391 469.329 395.457L469.815 396.055C469.869 396.121 469.923 396.188 469.977 396.254L470.463 396.852C470.517 396.918 470.57 396.985 470.624 397.051L471.11 397.649C471.164 397.715 471.218 397.782 471.271 397.848L471.758 398.446C471.812 398.512 471.865 398.579 471.919 398.645L472.405 399.243C472.459 399.309 472.513 399.376 472.566 399.442L473.053 400.039C473.107 400.106 473.16 400.172 473.214 400.239L473.7 400.836C473.754 400.903 473.807 400.969 473.861 401.036L474.348 401.633C474.401 401.699 474.455 401.766 474.509 401.832L474.995 402.43C475.049 402.496 475.102 402.563 475.156 402.629L475.643 403.227C475.696 403.293 475.75 403.36 475.804 403.426L476.29 404.024C476.344 404.09 476.397 404.157 476.451 404.223L476.938 404.821C476.991 404.887 477.045 404.954 477.099 405.02L477.585 405.618C477.639 405.684 477.692 405.751 477.746 405.817L478.232 406.414C478.286 406.481 478.34 406.547 478.394 406.614L478.88 407.211C478.934 407.278 478.987 407.344 479.041 407.411L479.527 408.008C479.581 408.074 479.635 408.141 479.688 408.207L480.175 408.805C480.229 408.871 480.282 408.938 480.336 409.004L480.822 409.602C480.876 409.668 480.93 409.735 480.983 409.801L481.47 410.399C481.524 410.465 481.577 410.532 481.631 410.598L482.117 411.196C482.171 411.262 482.224 411.329 482.278 411.395L482.765 411.993C482.818 412.059 482.872 412.126 482.926 412.192L483.412 412.789C483.466 412.856 483.519 412.922 483.573 412.989L484.06 413.586C484.113 413.653 484.167 413.719 484.221 413.786L484.707 414.383C484.761 414.449 484.814 414.516 484.868 414.582L485.354 415.18C485.408 415.246 485.462 415.313 485.516 415.379L486.002 415.977C486.056 416.043 486.109 416.11 486.163 416.176L486.649 416.774C486.703 416.84 486.757 416.907 486.811 416.973L487.297 417.571C487.351 417.637 487.404 417.704 487.458 417.77L487.944 418.368C487.998 418.434 488.052 418.501 488.105 418.567L488.592 419.164C488.646 419.231 488.699 419.297 488.753 419.364L489.239 419.961C489.293 420.028 489.347 420.094 489.4 420.161L489.887 420.758C489.941 420.824 489.994 420.891 490.048 420.957L490.534 421.555C490.588 421.621 490.641 421.688 490.695 421.754L491.182 422.352C491.235 422.418 491.289 422.485 491.343 422.551L491.829 423.149C491.883 423.215 491.936 423.282 491.99 423.348L492.477 423.946C492.53 424.012 492.584 424.079 492.638 424.145L493.124 424.743C493.178 424.809 493.231 424.876 493.285 424.942L493.771 425.539C493.825 425.606 493.879 425.672 493.933 425.739L494.419 426.336C494.473 426.403 494.526 426.469 494.58 426.536L495.066 427.133C495.12 427.199 495.174 427.266 495.228 427.332L495.714 427.93C495.768 427.996 495.821 428.063 495.875 428.129L496.361 428.727C496.415 428.793 496.469 428.86 496.522 428.926L497.009 429.524C497.063 429.59 497.116 429.657 497.17 429.723L497.656 430.321C497.71 430.387 497.764 430.454 497.817 430.52L498.304 431.118C498.358 431.184 498.411 431.251 498.465 431.317L498.951 431.914C499.005 431.981 499.058 432.047 499.112 432.114L499.599 432.711C499.652 432.778 499.706 432.844 499.76 432.911L500.246 433.508C500.3 433.574 500.353 433.641 500.407 433.707L500.894 434.305C500.947 434.371 501.001 434.438 501.055 434.504L501.541 435.102C501.595 435.168 501.648 435.235 501.702 435.301L502.188 435.899C502.242 435.965 502.296 436.032 502.35 436.098L502.836 436.696C502.89 436.762 502.943 436.829 502.997 436.895L503.483 437.493C503.537 437.559 503.591 437.626 503.645 437.692L504.131 438.289C504.668 438.95 505.204 439.611 505.757 440.291C506.836 441.619 507.915 442.947 508.993 444.275L517.336 454.53L517.337 454.531C525.566 464.629 529.78 469.798 531.913 472.604C532.932 473.944 533.726 475.062 534.223 476.065C534.513 476.652 534.756 477.3 534.889 478.035C535.012 478.717 535 479.308 535 479.443C535 482.204 532.761 484.443 530 484.443H10C8.39278 484.443 6.88312 483.67 5.94336 482.367C5.00362 481.063 4.74859 479.386 5.25684 477.862C7.18885 472.066 9.05348 466.754 11.6953 461.067C11.9758 460.459 12.3323 459.687 12.6211 459.061V459.06C13.2834 457.625 13.9483 456.192 14.6143 454.759C16.4181 450.877 18.2059 446.987 20 443.084L20.001 443.083C20.3714 442.278 20.7415 441.473 21.123 440.644L22.5576 437.507C25.8945 430.181 29.159 422.815 32.4268 415.421L32.4277 415.42C37.7521 403.383 43.1541 391.385 48.6426 379.42C54.7629 366.077 60.8063 352.7 66.7988 339.292L66.7998 339.291C70.5624 330.877 74.3482 322.473 78.1279 314.078C79.272 311.536 80.4165 308.995 81.5605 306.453C82.3347 304.734 83.1086 303.014 83.8828 301.294C86.3048 295.914 88.7256 290.533 91.1445 285.152C92.769 281.538 94.3938 277.923 96.0186 274.31C96.7869 272.601 97.5554 270.891 98.3232 269.182C102.648 259.554 107.008 249.927 111.466 240.335L111.611 240.046C112.385 238.629 113.801 237.667 115.417 237.477C117.141 237.275 118.848 237.981 119.924 239.343C122.216 242.245 124.031 245.107 125.592 248.578L126.715 251.057L126.727 251.083C127.114 251.953 127.502 252.823 127.901 253.719L129.146 256.477L129.146 256.479C130.457 259.388 131.759 262.299 133.06 265.203L135.688 271.039L135.688 271.041C139.178 278.796 140.863 282.543 142.117 285.389C145.89 280.079 149.555 274.687 153.176 269.212V269.211C155.573 265.588 157.979 261.972 160.38 258.362C161.15 257.203 161.15 257.203 161.936 256.021L161.938 256.019C168.37 246.356 174.872 236.741 181.356 227.144L188.901 215.956C196.436 204.763 203.939 193.552 211.398 182.313L211.4 182.31C211.833 181.66 212.265 181.009 212.71 180.339L215.104 176.73L215.108 176.722C216.373 174.82 217.118 173.696 217.678 172.938C218.374 171.995 218.871 171.502 219.465 170.908L219.646 170.734Z" fill="black" stroke="white" stroke-width="10" stroke-linejoin="round"/>
<path d="M773.083 169.732C793.828 169.851 813.088 176.047 828.711 190.609L829.453 191.309L829.614 191.471C829.666 191.526 829.718 191.582 829.768 191.64C839.915 203.295 846.425 214.725 850.356 227.197C854.27 239.614 855.55 252.822 855.55 267.901C855.55 270.663 853.312 272.901 850.55 272.901H785.394C782.808 272.901 780.649 270.93 780.415 268.354L778.658 249.029C776.391 246.698 775.739 246.147 775.155 245.864C774.611 245.601 773.954 245.478 769.818 245.296C768.321 245.272 766.824 245.249 765.284 245.225C762.814 245.233 762.805 245.233 760.266 245.241C760.251 245.241 760.236 245.241 760.22 245.241C758.503 245.231 756.785 245.221 755.015 245.211V245.21C751.4 245.198 747.785 245.202 744.169 245.218H739.967C735.776 245.206 731.593 245.164 727.426 245.118C723.917 245.115 720.408 245.116 716.9 245.122C716.876 245.122 716.851 245.121 716.827 245.121C715.188 245.1 713.548 245.079 711.861 245.057C705.389 245.132 702.274 245.283 697.949 247.772C695.625 252.013 695.628 255.001 695.743 261.556C695.743 261.568 695.744 261.581 695.744 261.594C695.768 264.053 695.792 266.512 695.817 269.044L696.011 276.879L696.012 276.932C696.051 279.575 696.086 282.219 696.118 284.862L696.192 289.694C696.243 292.779 696.303 295.863 696.37 298.948C709.14 297.825 721.122 295.247 733.873 291.709L733.954 291.688C759.439 285.073 780.673 281.429 806.629 293.426L807.869 294.009L808.071 294.111C808.137 294.147 808.203 294.184 808.268 294.223C827.963 305.949 845.002 322.636 852.273 345.711L852.612 346.814L852.668 347.022C860.073 376.349 859.639 412.84 844.367 440.339C844.313 440.436 844.254 440.532 844.194 440.626C829.683 463.067 810.987 476.373 785.226 482.722C785.139 482.743 785.052 482.763 784.964 482.779C776.844 484.324 768.855 484.247 761.269 484.211C759.562 484.215 757.855 484.218 756.096 484.222H756.089C752.471 484.224 748.853 484.217 745.236 484.201V484.2C739.797 484.18 734.356 484.201 728.895 484.226C728.889 484.226 728.883 484.226 728.877 484.226C696.646 484.255 669.541 482.401 643.921 457.364C643.789 457.235 643.664 457.1 643.547 456.957C628.208 438.226 621.336 418.392 621.336 394.382C621.336 391.62 623.575 389.382 626.336 389.382H689.576L689.777 389.386C691.846 389.468 693.66 390.823 694.319 392.801C694.588 393.608 694.762 394.128 695.031 394.936C695.034 394.947 695.038 394.958 695.042 394.969C695.045 394.98 695.05 394.991 695.053 395.002C695.075 395.069 695.053 395.002 695.076 395.068C695.118 395.196 695.077 395.074 695.12 395.202C695.168 395.349 695.093 395.122 695.142 395.269C695.146 395.28 695.149 395.291 695.153 395.302C695.157 395.313 695.161 395.325 695.165 395.336C695.183 395.392 695.168 395.345 695.187 395.402C695.208 395.467 695.187 395.405 695.208 395.469C695.276 395.671 695.32 395.801 695.387 396.003C695.407 396.063 695.545 396.476 695.565 396.537C695.63 396.733 695.677 396.877 695.743 397.072C695.756 397.113 695.908 397.567 695.921 397.606C696.029 397.928 695.993 397.82 696.1 398.142L696.278 398.677C696.357 398.915 696.288 398.707 696.368 398.944C696.392 399.017 696.366 398.939 696.39 399.012C696.395 399.025 696.407 399.066 696.412 399.079C696.42 399.105 696.448 399.187 696.457 399.213L696.814 400.285C696.867 400.445 696.806 400.259 696.859 400.419C696.863 400.43 696.866 400.442 696.87 400.453C696.873 400.464 696.878 400.475 696.881 400.486C696.885 400.497 696.888 400.509 696.892 400.52C696.896 400.531 696.9 400.543 696.904 400.554C696.937 400.653 696.96 400.723 696.993 400.822C696.997 400.836 697.033 400.941 697.038 400.956L697.105 401.158C697.109 401.169 697.113 401.18 697.117 401.191C697.12 401.202 697.124 401.214 697.127 401.225L697.24 401.562C697.257 401.615 697.244 401.575 697.262 401.628L697.352 401.897C697.445 402.176 697.438 402.157 697.531 402.436L697.845 403.379C697.872 403.458 697.841 403.368 697.868 403.447C697.871 403.458 697.876 403.469 697.879 403.48C697.883 403.492 697.886 403.503 697.89 403.515C697.915 403.59 697.911 403.574 697.936 403.649C697.967 403.743 697.927 403.622 697.958 403.717C697.962 403.728 697.966 403.74 697.969 403.751C697.973 403.762 697.977 403.773 697.981 403.784C698.032 403.936 697.975 403.767 698.026 403.919C698.03 403.93 698.033 403.942 698.037 403.953C698.04 403.964 698.045 403.976 698.048 403.987C698.052 403.998 698.055 404.009 698.059 404.021C698.063 404.032 698.067 404.043 698.071 404.055L698.138 404.257C698.142 404.268 698.146 404.28 698.15 404.291C698.154 404.302 698.157 404.314 698.161 404.325C698.184 404.396 698.227 404.525 698.25 404.596C698.318 404.798 698.229 404.528 698.296 404.73C698.317 404.792 698.298 404.737 698.319 404.799C698.363 404.931 698.297 404.733 698.341 404.866C698.448 405.188 698.324 404.815 698.431 405.137C698.445 405.179 698.508 405.365 698.522 405.408L698.612 405.68L698.974 406.767C699.014 406.885 698.958 406.715 698.998 406.834C699.001 406.845 699.005 406.857 699.008 406.868C699.012 406.88 699.016 406.891 699.02 406.902C699.028 406.927 699.034 406.946 699.042 406.971C699.046 406.982 699.05 406.994 699.054 407.005C699.058 407.016 699.061 407.027 699.065 407.038L699.156 407.311C699.163 407.332 699.166 407.342 699.17 407.355C705.943 408.691 712.737 408.891 720.208 408.935H720.215C721.668 408.945 723.12 408.957 724.617 408.968H724.616C727.668 408.986 730.72 408.998 733.772 409.006H733.78C738.474 409.025 743.163 409.084 747.828 409.145H747.827L756.721 409.174L756.793 409.175C758.167 409.198 759.542 409.221 760.957 409.245C765.325 409.222 768.659 408.823 771.552 407.83C773.952 407.006 776.238 405.705 778.631 403.578C779.054 397.187 779.016 390.762 779.077 384.036C779.077 384.006 779.078 383.976 779.079 383.945C779.134 381.92 779.188 379.894 779.245 377.809C779.268 374.9 779.269 374.888 779.293 371.898L779.294 371.861C779.321 370.156 779.346 368.451 779.374 366.7C779.257 365.59 779.186 364.945 779.101 364.46C779.065 364.257 779.036 364.14 779.019 364.081C778.979 364.031 778.896 363.933 778.742 363.776C778.427 363.457 778 363.074 777.319 362.469C772.448 360.201 765.985 360.385 758.376 362.04C754.529 362.877 750.623 364.033 746.767 365.243C742.997 366.426 739.127 367.708 735.708 368.657C735.685 368.664 735.661 368.671 735.637 368.677C712.821 374.65 687.314 380.549 662.954 368.84C662.826 368.779 662.701 368.712 662.58 368.641C641.833 356.403 628.844 341.519 622.642 317.624C622.611 317.504 622.584 317.383 622.562 317.262C620.464 305.709 620.559 294.256 620.692 283.159C620.737 279.133 620.731 275.102 620.718 271.039C620.718 271.03 620.718 271.021 620.718 271.013C620.747 257.17 621.435 244.015 625.357 230.132C625.832 228.422 626.306 226.712 626.795 224.95C626.83 224.825 626.87 224.701 626.915 224.579C635.349 201.394 653.045 186.007 673.876 175.302L674.15 175.172C686.529 169.733 698.897 170.262 710.572 170.206C712.798 170.189 715.024 170.171 717.318 170.153L717.328 170.152C722.039 170.125 726.75 170.109 731.46 170.102C738.573 170.079 745.687 169.985 752.831 169.888L752.878 169.887C757.461 169.869 762.043 169.856 766.625 169.847C768.718 169.81 770.811 169.772 772.966 169.733L773.083 169.732Z" fill="#030303" stroke="white" stroke-width="10" stroke-linejoin="round"/>
<path d="M1496.64 169.697L1500.14 169.703C1503.64 169.713 1507.15 169.736 1510.65 169.772L1510.65 169.773C1517.69 169.839 1524.73 169.812 1531.81 169.775C1531.83 169.775 1531.84 169.775 1531.85 169.775C1536.4 169.788 1540.94 169.807 1545.49 169.831C1548.6 169.817 1548.61 169.817 1551.8 169.803C1551.84 169.802 1551.87 169.802 1551.9 169.803C1574.09 170.14 1589.84 176.734 1605.75 191.715L1606.51 192.434L1606.71 192.636C1617.5 204.21 1624.32 215.209 1628.37 227.409C1632.4 239.536 1633.59 252.537 1633.59 267.902C1633.59 270.663 1631.35 272.902 1628.59 272.902H1563.44C1560.85 272.902 1558.69 270.93 1558.46 268.354C1557.89 262.088 1557.32 255.823 1556.73 249.403C1554.08 247.298 1553.07 246.597 1552.13 246.204C1551.14 245.794 1550.09 245.663 1545.87 245.389C1544.43 245.383 1542.98 245.378 1541.5 245.372C1539.09 245.407 1539.08 245.407 1536.61 245.443C1536.59 245.444 1536.57 245.444 1536.55 245.444C1534.04 245.45 1534.04 245.449 1531.48 245.454L1531.48 245.455C1529.71 245.461 1527.95 245.471 1526.19 245.484L1520.9 245.533C1515.46 245.593 1510.02 245.612 1504.6 245.623C1501.17 245.64 1497.73 245.661 1494.29 245.683H1494.29C1492.67 245.692 1491.06 245.699 1489.4 245.707C1483.99 245.773 1479.84 245.91 1475.47 247.019C1474.48 250.899 1474.34 254.348 1474.34 258.949L1474.35 261.434V261.444C1474.35 263.927 1474.36 266.41 1474.37 268.968L1474.42 276.853V276.866C1474.43 279.518 1474.43 282.17 1474.44 284.821L1474.48 294.552C1474.49 296.015 1474.5 297.477 1474.51 298.94C1487.24 297.813 1499.2 295.241 1511.91 291.71L1511.99 291.689C1538.76 284.714 1562.18 280.865 1588.91 296.139C1589.01 296.192 1589.1 296.248 1589.19 296.307C1608.73 309.207 1624.6 326.289 1631.2 349.812L1631.51 350.937L1631.59 351.309C1631.62 351.435 1631.63 351.561 1631.65 351.687C1632.65 361.053 1632.86 370.225 1632.78 379.468C1632.76 382.534 1632.79 385.603 1632.84 388.699L1632.89 391.808V391.869C1633.04 417.62 1626.06 440.183 1607.24 459.221C1607.14 459.314 1607.05 459.403 1606.95 459.489C1594.89 469.9 1582.76 477.725 1566.65 481.612C1564.92 482.094 1564.91 482.099 1563.12 482.598C1563.04 482.62 1562.96 482.64 1562.87 482.658C1558.3 483.69 1554.29 483.967 1549.87 484.011L1549.87 484.01C1548.35 484.028 1546.82 484.047 1545.25 484.066C1545.23 484.066 1545.22 484.066 1545.21 484.066C1543.57 484.074 1541.93 484.081 1540.24 484.09L1540.24 484.091C1538.52 484.102 1536.81 484.113 1535.04 484.124H1535.03C1531.39 484.142 1527.75 484.154 1524.11 484.161L1524.11 484.162C1518.64 484.18 1513.17 484.239 1507.68 484.3C1507.67 484.3 1507.66 484.301 1507.66 484.301C1482.77 484.446 1456.36 484.651 1433.99 467.398C1432.88 466.613 1431.77 465.827 1430.63 465.018C1430.58 464.982 1430.53 464.945 1430.48 464.907C1414.26 452.48 1404.1 433.838 1399.52 414.71C1399.42 414.328 1399.38 413.937 1399.38 413.545V394.382C1399.38 391.62 1401.62 389.382 1404.38 389.382H1467.62L1467.81 389.386C1469.82 389.463 1471.59 390.736 1472.3 392.626C1474 397.167 1475.71 401.708 1477.45 406.359C1483.04 409.496 1489.47 409.133 1498.21 409.122H1498.25C1500.43 409.134 1500.43 409.134 1502.65 409.146H1502.65C1505.7 409.157 1508.74 409.159 1511.79 409.15H1511.8C1516.5 409.144 1521.19 409.19 1525.86 409.238H1525.86L1534.75 409.241L1534.81 409.242C1536.86 409.268 1536.9 409.268 1538.92 409.294C1542.97 409.256 1545.91 408.953 1548.52 408.183C1550.8 407.512 1553.02 406.424 1555.59 404.56C1556.6 402.096 1557.05 399.27 1557.19 396C1557.26 394.147 1557.24 392.236 1557.2 390.216C1557.16 388.242 1557.1 386.108 1557.12 384.031C1557.12 383.998 1557.12 383.964 1557.12 383.931C1557.18 382.109 1557.23 380.287 1557.29 378.411C1557.4 372.903 1557.41 370.931 1557.03 369.13C1556.7 367.539 1556.05 365.991 1554.3 362.231C1551.45 360.868 1548.47 360.579 1545.08 360.921C1540.92 361.34 1536.82 362.599 1531.65 363.862C1525.33 365.479 1519.04 367.139 1512.78 368.887L1512.77 368.889C1488.53 375.625 1462.75 379.076 1438.06 367.37C1437.94 367.314 1437.82 367.252 1437.71 367.186C1420.28 357.168 1408.31 343.284 1402.27 323.796C1402.25 323.725 1402.23 323.654 1402.21 323.583C1398.28 308.605 1398.45 293.698 1398.52 279.204C1398.54 274.513 1398.49 269.818 1398.43 265.08C1398.43 265.066 1398.42 265.052 1398.42 265.038C1398.35 248.623 1398.75 233.435 1407.69 217.542C1408.54 216.024 1409.39 214.506 1410.27 212.942L1410.32 212.848C1428.1 182.764 1456.13 169.32 1489.9 169.712C1492.12 169.707 1494.34 169.702 1496.63 169.697H1496.64Z" fill="#020202" stroke="white" stroke-width="10" stroke-linejoin="round"/>
<path d="M1262.99 169.794C1291.81 169.625 1316.32 171.406 1339.29 193.309L1340.39 194.368L1340.62 194.619C1352.14 207.637 1358.42 219.802 1361.72 233.214C1364.98 246.433 1365.3 260.66 1365.3 277.483C1365.3 280.244 1363.06 282.483 1360.3 282.483H1297.06C1294.43 282.483 1292.25 280.443 1292.07 277.816C1291.17 264.243 1291.13 263.617 1290.28 250.987C1286.53 247.437 1283.81 245.829 1281.08 244.961C1277.83 243.926 1274.11 243.768 1267.62 243.699H1267.62L1263.46 243.652V243.651C1260.56 243.625 1257.67 243.606 1254.78 243.591H1254.77C1251.79 243.568 1248.8 243.528 1245.82 243.471C1241.57 243.39 1237.32 243.36 1233.04 243.341C1233 243.34 1232.97 243.34 1232.93 243.339C1230.99 243.289 1230.96 243.288 1229.04 243.239C1223.71 243.266 1220.64 243.809 1216.5 246.071C1214.44 248.394 1213.56 250.352 1213.12 252.379C1212.58 254.837 1212.61 257.578 1212.67 261.897C1212.67 261.938 1212.67 261.979 1212.67 262.02C1212.65 263.539 1212.64 265.057 1212.62 266.622C1212.58 271.591 1212.6 276.564 1212.64 281.576C1212.64 281.59 1212.64 281.603 1212.64 281.617C1212.63 285.109 1212.62 288.602 1212.61 292.094C1212.6 297.563 1212.61 303.034 1212.63 308.506L1212.66 313.981V313.983C1212.71 323.378 1212.68 332.765 1212.63 342.138C1212.6 347.525 1212.6 352.914 1212.61 358.308L1212.63 363.707V363.716C1212.63 367.182 1212.63 370.648 1212.6 374.115C1212.58 378.904 1212.62 383.697 1212.67 388.517C1212.67 388.558 1212.67 388.599 1212.67 388.64C1212.65 390.026 1212.63 391.412 1212.61 392.838C1212.69 396.395 1212.95 398.479 1213.54 400.257C1214.08 401.891 1215.01 403.576 1216.89 406.042C1219.4 407.86 1221.51 408.73 1223.66 409.183C1226.11 409.699 1228.83 409.731 1232.78 409.618L1232.91 409.616C1234.27 409.612 1235.63 409.607 1237.04 409.602L1239.18 409.584C1241.32 409.561 1243.46 409.527 1245.6 409.48H1245.6C1250.03 409.385 1254.44 409.361 1258.83 409.35L1267.24 409.257C1267.24 409.256 1267.25 409.257 1267.26 409.257C1268.54 409.246 1269.82 409.236 1271.14 409.225C1277.68 409.062 1282.54 408.378 1287.73 405.914C1291.12 399.537 1290.97 392.27 1291.35 383.041C1291.35 383.032 1291.35 383.023 1291.35 383.014C1291.59 377.837 1291.82 372.659 1292.07 367.324L1292.08 367.075C1292.33 364.525 1294.47 362.552 1297.06 362.552H1358.39C1361.11 362.552 1363.33 364.727 1363.38 367.447C1363.54 374.942 1363.7 382.438 1363.86 390.159L1364.07 397.21C1364.08 397.243 1364.08 397.276 1364.08 397.309C1364.32 421.802 1355.5 441.881 1338.9 459.514C1338.83 459.587 1338.76 459.657 1338.68 459.725C1324.55 473.049 1308.34 481.879 1287.94 482.123L1287.94 482.124C1286.13 482.148 1284.31 482.173 1282.44 482.198C1282.43 482.198 1282.42 482.199 1282.41 482.199C1279.47 482.22 1279.47 482.219 1276.48 482.241L1276.48 482.242C1273.44 482.265 1273.44 482.265 1270.34 482.289H1270.33C1266.04 482.315 1261.74 482.334 1257.44 482.349L1257.44 482.35C1253.09 482.372 1248.73 482.412 1244.37 482.469C1238.02 482.551 1231.67 482.581 1225.34 482.6C1223.42 482.634 1221.51 482.668 1219.54 482.702C1219.51 482.702 1219.47 482.703 1219.44 482.703C1196.96 482.635 1179.32 474.511 1163.31 459.334C1163.2 459.232 1163.1 459.126 1163 459.015C1154.85 449.787 1148.6 440.895 1144.41 431.048C1140.21 421.172 1138.17 410.58 1138.14 398.06L1138.08 392.918V392.911C1138.02 387.314 1138 381.72 1137.97 376.137L1137.94 370.317C1137.89 360.141 1137.85 349.965 1137.83 339.789C1137.81 329.37 1137.72 318.948 1137.61 308.512V308.505C1137.54 300.404 1137.52 292.308 1137.51 284.222L1137.48 278.48C1137.47 276.566 1137.45 274.652 1137.42 272.738V272.734C1137.08 244.505 1139.1 217.709 1161.3 194.929C1161.39 194.839 1161.48 194.751 1161.57 194.668C1171.37 186.036 1180.86 179.816 1191.32 175.788C1201.78 171.761 1212.95 170.025 1225.97 170.019V170.018C1227.93 170.004 1229.89 169.989 1231.9 169.974L1231.92 169.973C1236.05 169.953 1240.18 169.947 1244.31 169.956C1250.51 169.958 1256.71 169.879 1262.95 169.794H1262.99Z" fill="#020202" stroke="white" stroke-width="10" stroke-linejoin="round"/>
<path d="M1103.51 169L1103.77 169.007C1106.4 169.14 1108.5 171.317 1108.51 173.987C1108.59 204.382 1108.59 204.385 1108.6 217.43C1108.62 226.298 1108.63 235.164 1108.65 244.028C1108.68 251.189 1108.69 258.349 1108.69 265.508L1108.71 273.652V273.653C1108.78 293.216 1108.84 303.611 1107.72 311.079C1106.54 319.001 1104.02 323.774 1099.8 331.891L1096.44 338.517C1096.39 338.617 1096.34 338.716 1096.28 338.812C1084.12 359.233 1066.87 370.891 1045.31 378.713C1045.11 378.782 1044.92 378.84 1044.72 378.886C1042.08 379.491 1040.43 379.878 1037.65 380.057C1035.85 380.173 1033.52 380.204 1029.94 380.213V478.701C1029.94 481.463 1027.7 483.701 1024.94 483.701H961.699C958.938 483.701 956.699 481.462 956.699 478.701V379.783C951.25 379.288 945.772 378.791 940.167 378.281C939.798 378.248 939.433 378.174 939.081 378.06C914.277 370.04 898.175 352.933 886.724 330.911C886.678 330.822 886.634 330.73 886.593 330.638C881.686 319.616 879.569 310.392 879.61 298.185C879.609 296.192 879.609 296.192 879.608 294.158V294.153L879.615 290.874C879.626 287.596 879.648 284.321 879.67 281.057C879.678 278.032 879.683 275.008 879.687 271.983V271.98C879.702 264.013 879.739 256.048 879.782 248.089C879.828 238.535 879.845 228.98 879.868 219.414V219.413C879.905 204.903 879.978 190.393 880.044 175.894L880.052 175.637C880.198 173.004 882.378 170.916 885.044 170.916H948.285L948.541 170.923C951.167 171.055 953.263 173.216 953.285 175.875C953.392 188.985 953.392 188.989 953.501 202.356L953.685 218.986C953.789 227.786 953.887 236.594 953.949 245.405C953.986 250.717 954.038 256.029 954.103 261.343L954.171 266.657L954.172 266.666C954.204 269.381 954.226 272.097 954.238 274.812L954.258 277.636C954.285 280.461 954.328 283.293 954.372 286.14C954.372 286.149 954.372 286.159 954.373 286.168C954.403 289.297 954.404 289.401 954.433 292.388C955.161 297.619 956.803 301.431 960.115 305.161C964.685 305.363 969.232 305.477 973.827 305.519H973.83L978.678 305.565H978.677C980.368 305.579 982.059 305.59 983.75 305.601L988.831 305.627L988.839 305.628C994.046 305.661 999.246 305.745 1004.42 305.829H1004.42L1014.28 305.878L1014.37 305.879C1015.93 305.912 1017.49 305.946 1019.09 305.98H1019.09C1023.5 306.061 1024.72 306.037 1025.75 305.761C1026.63 305.525 1027.49 305.074 1030.15 303.441C1032.17 299.234 1032.21 295.978 1032.27 289.692C1032.27 289.682 1032.27 289.672 1032.27 289.662C1032.29 288.409 1032.31 287.155 1032.33 285.863C1032.38 281.767 1032.4 277.668 1032.42 273.54V273.505C1032.45 270.634 1032.49 267.763 1032.52 264.893C1032.61 257.373 1032.67 249.85 1032.72 242.317V242.313C1032.79 233.253 1032.9 224.192 1033 215.149C1033.15 201.425 1033.25 187.702 1033.35 173.961L1033.36 173.705C1033.51 171.079 1035.69 169 1038.35 169H1103.51Z" fill="#030303" stroke="white" stroke-width="10" stroke-linejoin="round"/>
<path d="M227.262 5L230.027 5.01367C243.819 5.14261 257.057 6.2148 270.881 9.96289L270.88 9.96387C272.517 10.4047 274.167 10.8072 275.844 11.1924L277.533 11.5723L277.55 11.5762C314.133 19.8038 345.479 38.6852 373.233 62.6289L375.726 64.7422C375.731 64.7467 375.737 64.7513 375.742 64.7559C376.445 65.3568 377.147 65.9581 377.871 66.5771L379.66 68.1045C379.739 68.1721 379.817 68.243 379.892 68.3154C382.419 70.7615 385.223 73.5144 386.26 78.4707L386.354 78.957L386.389 79.1758C386.418 79.3948 386.433 79.6157 386.434 79.8369C386.44 84.1875 386.491 88.0229 383.467 93.0283C383.219 93.4379 382.915 93.8099 382.562 94.1328C380.209 96.2834 377.862 97.9873 375.062 99.0645C372.253 100.145 369.377 100.446 366.198 100.396C365.752 100.388 365.309 100.322 364.881 100.197C360.882 99.0342 357.757 96.8728 355.166 94.5957C352.739 92.463 350.298 89.7502 348.401 87.8447C328.241 67.6345 299.293 54.2207 271.438 46.6426C271.43 46.6405 271.423 46.6378 271.415 46.6357C270.73 46.4459 270.044 46.2569 269.339 46.0615C254.137 42.0944 239.233 40.8984 223.283 41.0049C223.277 41.0049 223.271 41.0049 223.266 41.0049C221.815 41.0094 221.813 41.009 220.338 41.0137L220.339 41.0146C206.295 41.0799 193.353 41.6875 180.324 45.2646C180.302 45.2708 180.279 45.2764 180.257 45.2822C178.898 45.6352 178.896 45.6348 177.513 45.9941C165.189 49.208 153.623 53.0122 142.513 58.6514L142.506 58.6553C141.833 58.9954 141.16 59.3343 140.467 59.6846C129.636 65.2128 119.5 71.1056 110.057 78.3994C110.05 78.4049 110.042 78.4106 110.035 78.416C108.821 79.3431 108.807 79.3538 107.597 80.2783L106.609 81.0547C101.692 84.9549 97.0138 89.1239 92.3555 93.4961L92.3486 93.5029L92.3477 93.502C89.8253 95.8604 87.4434 97.6346 84.5137 98.6699C81.656 99.6797 78.7239 99.8203 75.5215 99.8018C75.298 99.8004 75.0748 99.7841 74.8535 99.7529C72.1022 99.3653 69.8999 98.5177 67.9131 97.1279C66.116 95.8709 64.6335 94.2421 63.3359 92.8447C63.0126 92.4965 62.7409 92.1038 62.5283 91.6787C59.8828 86.3877 60.0929 81.2027 61.1084 76.4072L61.1592 76.1904C61.2888 75.6893 61.4956 75.2108 61.7725 74.7725C67.2472 66.1053 76.0387 59.8371 82.8906 54.5254C83.9103 53.7128 84.9309 52.9007 85.9814 52.0635C85.9853 52.0604 85.9893 52.0577 85.9932 52.0547C112.254 31.2583 144.412 14.8762 178.095 9.52441C179.656 9.20686 181.216 8.88265 182.774 8.55176L182.846 8.53711C196.861 5.77373 210.307 5.0056 224.304 5.00586V5.00488C225.276 5.00315 226.248 5.00178 227.249 5H227.262Z" fill="#030303" stroke="white" stroke-width="10" stroke-linejoin="round"/>
<path d="M226.629 71.1692C241.379 71.1532 255.339 73.0752 269.543 77.6868H269.542L272.92 78.7727L272.996 78.7971C294.914 86.2284 313.082 97.3952 330.193 112.593C330.94 113.182 331.689 113.772 332.458 114.379C332.499 114.411 332.539 114.444 332.579 114.477C334.061 115.721 335.603 117.08 336.84 118.823C338.157 120.678 338.952 122.703 339.452 125.13C339.505 125.388 339.537 125.649 339.549 125.911C339.774 130.864 339.47 134.877 336.692 139.918C336.394 140.46 335.997 140.941 335.523 141.338C333.371 143.141 331.2 144.558 328.667 145.465C326.135 146.372 323.563 146.655 320.768 146.63C320.546 146.628 320.325 146.612 320.105 146.58C312.819 145.539 308.894 141.132 305.382 137.716C282.248 116.067 250.875 105.715 219.163 106.261C189.126 107.459 162.543 118.73 140.275 138.862L140.27 138.865C139.684 139.393 139.098 139.923 138.494 140.468C137.993 140.928 137.492 141.389 136.976 141.863C136.886 141.945 136.793 142.025 136.697 142.101C134.485 143.853 132.225 145.131 129.672 145.912C127.148 146.685 124.594 146.893 121.91 146.828C121.637 146.822 121.365 146.793 121.096 146.741C114.719 145.527 111.151 141.013 108.592 137.525C108.25 137.058 107.991 136.534 107.828 135.979C106.579 131.732 105.798 126.833 108.327 121.53L108.493 121.211C108.552 121.107 108.615 121.005 108.681 120.906C112.412 115.316 117.285 111.242 121.822 107.582L124.63 105.27L124.668 105.239C143.371 90.1475 166.803 77.6372 191.149 73.5168V73.5159C192.108 73.3503 193.066 73.1846 194.054 73.0139C194.077 73.01 194.1 73.0058 194.123 73.0022C202.965 71.5994 211.554 71.1287 220.361 71.1819L220.36 71.1829C222.429 71.1934 224.504 71.1819 226.604 71.1692H226.629Z" fill="#030303" stroke="white" stroke-width="10" stroke-linejoin="round"/>
<path d="M197.939 134.558C208.806 131.831 219.156 131.049 230.156 131.446L230.157 131.445L233.028 131.535L233.168 131.542C241.3 132.026 248.526 134.204 255.631 136.716L258.596 137.74C258.643 137.756 258.689 137.772 258.735 137.79C270.909 142.398 286.541 151.205 294.774 163.1L295.161 163.67L295.312 163.912C295.649 164.485 295.868 165.121 295.957 165.783C296.664 171.098 297.059 177.023 293.491 183.052C293.226 183.5 292.892 183.904 292.502 184.249C290.393 186.117 288.276 187.724 285.73 188.763C283.123 189.828 280.463 190.141 277.47 190.079C277.101 190.071 276.732 190.022 276.374 189.933C270.483 188.476 266.557 184.249 263.757 181.753C254.062 173.68 241.883 167.872 229.821 167.439H229.816C228.213 167.38 228.19 167.378 226.602 167.32C208.858 166.996 193.231 172.039 180.393 183.979C179.846 184.511 179.299 185.043 178.736 185.59C178.682 185.643 178.627 185.694 178.571 185.744C177.015 187.126 175.415 188.243 173.485 188.996C171.589 189.735 169.69 189.999 167.752 190.121C167.531 190.135 167.309 190.133 167.088 190.118C164.025 189.903 161.456 189.204 159.075 187.797C156.826 186.468 155.031 184.663 153.342 182.851C153.209 182.708 153.084 182.558 152.968 182.4C149.223 177.293 149.579 172.258 150.027 167.928L150.06 167.669C150.155 167.065 150.36 166.484 150.665 165.953C160.592 148.668 180.86 139.305 197.817 134.59C197.857 134.579 197.898 134.568 197.939 134.558Z" fill="#040404" stroke="white" stroke-width="10" stroke-linejoin="round"/>
</svg>
