<svg width="544" height="681" viewBox="0 0 544 681" fill="none" xmlns="http://www.w3.org/2000/svg">
<path d="M220.014 170.734C221.934 168.996 224.886 169.007 226.793 170.799C230.245 174.044 232.817 177.373 235.284 181.125L236.371 182.768L236.372 182.769C237.162 183.964 237.949 185.16 238.734 186.357C239.84 188.041 240.951 189.723 242.064 191.406L245.411 196.458L245.412 196.46C245.896 197.192 246.381 197.923 246.88 198.677C250.639 204.349 254.439 209.998 258.26 215.645C258.841 216.505 259.423 217.365 260.022 218.251L263.62 223.566V223.567C275.801 241.567 287.832 259.659 299.744 277.833L302.295 281.71C307.143 289.056 312.046 296.354 317.027 303.599C319.026 301.471 320.962 299.296 322.847 297.045L322.854 297.036C323.335 296.464 323.817 295.892 324.312 295.303C327.663 291.307 330.951 287.255 334.206 283.155L334.211 283.148C337.225 279.363 340.262 275.604 343.295 271.859C343.856 271.162 344.418 270.466 344.997 269.748L345.005 269.738C345.807 268.748 345.808 268.747 346.625 267.74C347.103 267.149 347.581 266.557 348.073 265.949C348.1 265.915 348.128 265.883 348.156 265.85C349.688 264.053 351.274 262.421 352.883 260.858L353.071 260.684C354.034 259.839 355.288 259.393 356.575 259.447C357.947 259.504 359.236 260.124 360.138 261.16C366.588 268.566 372.948 276.08 379.029 283.911C382.155 287.924 385.363 291.878 388.618 295.835L391.886 299.796C397.519 306.608 403.091 313.461 408.643 320.31H408.642C411.341 323.637 414.043 326.962 416.748 330.289H416.749L421.624 336.289C421.678 336.356 421.731 336.422 421.785 336.489L422.271 337.086C422.325 337.153 422.379 337.219 422.432 337.286L422.919 337.883C422.973 337.949 423.026 338.016 423.08 338.082L423.566 338.68C423.62 338.746 423.673 338.813 423.727 338.879L424.214 339.477C424.267 339.543 424.321 339.61 424.375 339.676L424.861 340.274C424.915 340.34 424.968 340.407 425.022 340.473L425.509 341.071C425.562 341.137 425.616 341.204 425.67 341.27L426.156 341.868C426.21 341.934 426.263 342.001 426.317 342.067L426.803 342.664C426.857 342.731 426.911 342.797 426.965 342.864L427.451 343.461C427.505 343.528 427.558 343.594 427.612 343.661L428.098 344.258C428.152 344.324 428.206 344.391 428.26 344.457L428.746 345.055C428.8 345.121 428.853 345.188 428.907 345.254L429.393 345.852C429.447 345.918 429.501 345.985 429.554 346.051L430.041 346.649C430.095 346.715 430.148 346.782 430.202 346.848L430.688 347.446C430.742 347.512 430.796 347.579 430.849 347.645L431.336 348.243C431.39 348.309 431.443 348.376 431.497 348.442L431.983 349.039C432.037 349.106 432.09 349.172 432.144 349.239L432.631 349.836C432.684 349.903 432.738 349.969 432.792 350.036L433.278 350.633C433.332 350.699 433.385 350.766 433.439 350.832L433.926 351.43C433.979 351.496 434.033 351.563 434.087 351.629L434.573 352.227C434.627 352.293 434.68 352.36 434.734 352.426L435.22 353.024C435.274 353.09 435.328 353.157 435.382 353.223L435.868 353.821C435.922 353.887 435.975 353.954 436.029 354.02L436.515 354.618C436.569 354.684 436.623 354.751 436.677 354.817L437.163 355.414C437.217 355.481 437.27 355.547 437.324 355.614L437.81 356.211C437.864 356.278 437.918 356.344 437.971 356.411L438.458 357.008C438.512 357.074 438.565 357.141 438.619 357.207L439.105 357.805C439.159 357.871 439.213 357.938 439.266 358.004L439.753 358.602C439.807 358.668 439.86 358.735 439.914 358.801L440.4 359.399C440.454 359.465 440.507 359.532 440.561 359.598L441.048 360.196C441.101 360.262 441.155 360.329 441.209 360.395L441.695 360.993C441.749 361.059 441.802 361.126 441.856 361.192L442.343 361.789C442.396 361.856 442.45 361.922 442.504 361.989L442.99 362.586C443.044 362.653 443.097 362.719 443.151 362.786L443.637 363.383C443.691 363.449 443.745 363.516 443.799 363.582L444.285 364.18C444.339 364.246 444.392 364.313 444.446 364.379L444.932 364.977C444.986 365.043 445.04 365.11 445.094 365.176L445.58 365.774C445.634 365.84 445.687 365.907 445.741 365.973L446.227 366.571C446.281 366.637 446.335 366.704 446.388 366.77L446.875 367.368C446.929 367.434 446.982 367.501 447.036 367.567L447.522 368.164C447.576 368.231 447.63 368.297 447.683 368.364L448.17 368.961C448.224 369.028 448.277 369.094 448.331 369.161L448.817 369.758C448.871 369.824 448.924 369.891 448.978 369.957L449.465 370.555C449.518 370.621 449.572 370.688 449.626 370.754L450.112 371.352C450.166 371.418 450.219 371.485 450.273 371.551L450.76 372.149C450.813 372.215 450.867 372.282 450.921 372.348L451.407 372.946C451.461 373.012 451.514 373.079 451.568 373.145L452.054 373.743C452.108 373.809 452.162 373.876 452.216 373.942L452.702 374.539C452.756 374.606 452.809 374.672 452.863 374.739L453.349 375.336C453.403 375.403 453.457 375.469 453.51 375.536L453.997 376.133C454.051 376.199 454.104 376.266 454.158 376.332L454.644 376.93C454.698 376.996 454.752 377.063 454.805 377.129L455.292 377.727C455.346 377.793 455.399 377.86 455.453 377.926L455.939 378.524C455.993 378.59 456.047 378.657 456.1 378.723L456.587 379.321C456.641 379.387 456.694 379.454 456.748 379.52L457.234 380.118C457.288 380.184 457.341 380.251 457.395 380.317L457.882 380.914C457.935 380.981 457.989 381.047 458.043 381.114L458.529 381.711C458.583 381.778 458.636 381.844 458.69 381.911L459.177 382.508C459.23 382.574 459.284 382.641 459.338 382.707L459.824 383.305C459.878 383.371 459.931 383.438 459.985 383.504L460.471 384.102C460.525 384.168 460.579 384.235 460.633 384.301L461.119 384.899C461.173 384.965 461.226 385.032 461.28 385.098L461.766 385.696C461.82 385.762 461.874 385.829 461.927 385.895L462.414 386.493C462.468 386.559 462.521 386.626 462.575 386.692L463.061 387.289C463.115 387.356 463.169 387.422 463.222 387.489L463.709 388.086C463.763 388.153 463.816 388.219 463.87 388.286L464.356 388.883C464.41 388.949 464.463 389.016 464.517 389.082L465.004 389.68C465.058 389.746 465.111 389.813 465.165 389.879L465.651 390.477C465.705 390.543 465.758 390.61 465.812 390.676L466.299 391.274C466.352 391.34 466.406 391.407 466.46 391.473L466.946 392.071C467 392.137 467.053 392.204 467.107 392.27L467.594 392.868C467.647 392.934 467.701 393.001 467.755 393.067L468.241 393.664C468.295 393.731 468.348 393.797 468.402 393.864L468.888 394.461C468.942 394.528 468.996 394.594 469.05 394.661L469.536 395.258C469.59 395.324 469.643 395.391 469.697 395.457L470.183 396.055C470.237 396.121 470.291 396.188 470.344 396.254L470.831 396.852C470.885 396.918 470.938 396.985 470.992 397.051L471.478 397.649C471.532 397.715 471.586 397.782 471.639 397.848L472.126 398.446C472.18 398.512 472.233 398.579 472.287 398.645L472.773 399.243C472.827 399.309 472.88 399.376 472.934 399.442L473.421 400.039C473.474 400.106 473.528 400.172 473.582 400.239L474.068 400.836C474.122 400.903 474.175 400.969 474.229 401.036L474.716 401.633C474.769 401.699 474.823 401.766 474.877 401.832L475.363 402.43C475.417 402.496 475.47 402.563 475.524 402.629L476.01 403.227C476.064 403.293 476.118 403.36 476.172 403.426L476.658 404.024C476.712 404.09 476.765 404.157 476.819 404.223L477.305 404.821C477.359 404.887 477.413 404.954 477.467 405.02L477.953 405.618C478.007 405.684 478.06 405.751 478.114 405.817L478.6 406.414C478.654 406.481 478.708 406.547 478.761 406.614L479.248 407.211C479.302 407.278 479.355 407.344 479.409 407.411L479.895 408.008C479.949 408.074 480.003 408.141 480.056 408.207L480.543 408.805C480.597 408.871 480.65 408.938 480.704 409.004L481.19 409.602C481.244 409.668 481.297 409.735 481.351 409.801L481.838 410.399C481.891 410.465 481.945 410.532 481.999 410.598L482.485 411.196C482.539 411.262 482.592 411.329 482.646 411.395L483.133 411.993C483.186 412.059 483.24 412.126 483.294 412.192L483.78 412.789C483.834 412.856 483.887 412.922 483.941 412.989L484.427 413.586C484.481 413.653 484.535 413.719 484.589 413.786L485.075 414.383C485.129 414.449 485.182 414.516 485.236 414.582L485.722 415.18C485.776 415.246 485.83 415.313 485.884 415.379L486.37 415.977C486.424 416.043 486.477 416.11 486.531 416.176L487.017 416.774C487.071 416.84 487.125 416.907 487.178 416.973L487.665 417.571C487.719 417.637 487.772 417.704 487.826 417.77L488.312 418.368C488.366 418.434 488.42 418.501 488.473 418.567L488.96 419.164C489.014 419.231 489.067 419.297 489.121 419.364L489.607 419.961C489.661 420.028 489.714 420.094 489.768 420.161L490.255 420.758C490.308 420.824 490.362 420.891 490.416 420.957L490.902 421.555C490.956 421.621 491.009 421.688 491.063 421.754L491.55 422.352C491.603 422.418 491.657 422.485 491.711 422.551L492.197 423.149C492.251 423.215 492.304 423.282 492.358 423.348L492.844 423.946C492.898 424.012 492.952 424.079 493.006 424.145L493.492 424.743C493.546 424.809 493.599 424.876 493.653 424.942L494.139 425.539C494.193 425.606 494.247 425.672 494.301 425.739L494.787 426.336C494.841 426.403 494.894 426.469 494.948 426.536L495.434 427.133C495.488 427.199 495.542 427.266 495.595 427.332L496.082 427.93C496.136 427.996 496.189 428.063 496.243 428.129L496.729 428.727C496.783 428.793 496.837 428.86 496.89 428.926L497.377 429.524C497.431 429.59 497.484 429.657 497.538 429.723L498.024 430.321C498.078 430.387 498.131 430.454 498.185 430.52L498.672 431.118C498.725 431.184 498.779 431.251 498.833 431.317L499.319 431.914C499.373 431.981 499.426 432.047 499.48 432.114L499.967 432.711C500.02 432.778 500.074 432.844 500.128 432.911L500.614 433.508C500.668 433.574 500.721 433.641 500.775 433.707L501.261 434.305C501.315 434.371 501.369 434.438 501.423 434.504L501.909 435.102C501.963 435.168 502.016 435.235 502.07 435.301L502.556 435.899C502.61 435.965 502.664 436.032 502.718 436.098L503.204 436.696C503.258 436.762 503.311 436.829 503.365 436.895L503.851 437.493C503.905 437.559 503.959 437.626 504.012 437.692L504.499 438.289C505.035 438.95 505.572 439.611 506.125 440.291C507.203 441.619 508.283 442.947 509.361 444.275L517.704 454.53L517.705 454.531C525.934 464.629 530.147 469.798 532.281 472.604C533.3 473.944 534.094 475.062 534.591 476.065C534.881 476.652 535.124 477.3 535.257 478.035C535.38 478.717 535.368 479.308 535.368 479.443C535.368 482.204 533.129 484.443 530.368 484.443H10.3679C8.7607 484.443 7.25104 483.67 6.31128 482.367C5.37154 481.063 5.11651 479.386 5.62476 477.862C7.55677 472.066 9.4214 466.754 12.0632 461.067C12.3437 460.459 12.7002 459.687 12.989 459.061V459.06C13.6513 457.625 14.3162 456.192 14.9822 454.759C16.786 450.877 18.5738 446.987 20.3679 443.084L20.3689 443.083C20.7393 442.278 21.1094 441.473 21.491 440.644L22.9255 437.507C26.2624 430.181 29.5269 422.815 32.7947 415.421L32.7957 415.42C38.1201 403.383 43.522 391.385 49.0105 379.42C55.1308 366.077 61.1742 352.7 67.1667 339.292L67.1677 339.291C70.9303 330.877 74.7161 322.473 78.4958 314.078C79.6399 311.536 80.7844 308.995 81.9285 306.453C82.7026 304.734 83.4765 303.014 84.2507 301.294C86.6727 295.914 89.0935 290.533 91.5125 285.152C93.1369 281.538 94.7617 277.923 96.3865 274.31C97.1548 272.601 97.9233 270.891 98.6912 269.182C103.016 259.554 107.376 249.927 111.834 240.335L111.979 240.046C112.753 238.629 114.169 237.667 115.785 237.477C117.509 237.275 119.216 237.981 120.292 239.343C122.584 242.245 124.399 245.107 125.96 248.578L127.083 251.057L127.094 251.083C127.482 251.953 127.87 252.823 128.269 253.719L129.513 256.477L129.514 256.479C130.825 259.388 132.127 262.299 133.427 265.203L136.055 271.039L136.056 271.041C139.546 278.796 141.23 282.543 142.485 285.389C146.258 280.079 149.923 274.687 153.544 269.212V269.211C155.941 265.588 158.346 261.972 160.748 258.362C161.518 257.203 161.518 257.203 162.303 256.021L162.305 256.019C168.738 246.356 175.24 236.741 181.724 227.144L189.269 215.956C196.804 204.763 204.307 193.552 211.766 182.313L211.768 182.31C212.2 181.66 212.633 181.009 213.078 180.339L215.471 176.73L215.476 176.722C216.741 174.82 217.486 173.696 218.046 172.938C218.742 171.995 219.239 171.502 219.833 170.908L220.014 170.734Z" fill="black" stroke="white" stroke-width="10" stroke-linejoin="round"/>
<path d="M86.9573 506.825C98.0944 506.889 108.597 510.177 117.186 517.978L118.011 518.747L118.172 518.909C118.225 518.964 118.276 519.02 118.326 519.078C123.81 525.377 127.385 531.624 129.547 538.483C131.691 545.286 132.367 552.449 132.367 560.443C132.367 563.204 130.129 565.443 127.367 565.443H93.3674C90.7816 565.443 88.6221 563.471 88.3879 560.895C88.1101 557.839 87.832 554.781 87.5481 551.658C87.3895 551.5 87.2543 551.369 87.1311 551.256C87.0828 551.211 87.0395 551.177 87.0051 551.147C86.6537 551.106 86.1559 551.08 85.1594 551.036C84.3871 551.024 83.614 551.012 82.8186 551C81.5927 551.004 81.5662 551.005 80.2639 551.01C80.2487 551.01 80.2332 551.01 80.218 551.01C79.3217 551.004 78.4247 550.998 77.5012 550.993V550.992C75.6236 550.986 73.7452 550.988 71.8665 550.997H69.6575C67.475 550.991 65.3005 550.968 63.1428 550.944V550.945C61.3051 550.943 59.4675 550.944 57.6301 550.947C57.6058 550.947 57.5812 550.946 57.5569 550.946C56.7121 550.935 55.8674 550.923 54.9983 550.912C52.1411 550.946 50.9211 551.017 49.5305 551.69C49.033 552.798 48.9439 553.802 48.9592 555.842L48.9768 557.09V557.128C48.9895 558.399 49.0019 559.671 49.0149 560.98L49.1165 565.067L49.1174 565.12C49.1375 566.5 49.1557 567.88 49.1721 569.26L49.2502 573.996C54.7951 573.336 60.1445 572.144 65.843 570.562C65.8698 570.555 65.8971 570.548 65.9241 570.541C79.3508 567.056 91.1203 564.97 105.445 571.588L106.128 571.909L106.33 572.011C106.397 572.047 106.463 572.084 106.528 572.123C117.286 578.528 126.817 587.835 130.734 600.936C130.754 601.005 130.774 601.075 130.791 601.144C134.747 616.813 134.592 636.532 126.231 651.586C126.177 651.683 126.119 651.779 126.059 651.873C118.157 664.093 107.888 671.403 93.8528 674.862C93.7659 674.883 93.6779 674.903 93.5901 674.92C89.0892 675.776 84.6872 675.728 80.7737 675.709C79.8866 675.711 78.9992 675.713 78.0852 675.715H78.0774C76.1854 675.716 74.2932 675.712 72.4016 675.704V675.703C69.5751 675.692 66.7445 675.704 63.8958 675.717C63.8899 675.717 63.884 675.717 63.8782 675.717C46.9773 675.732 31.9669 674.792 17.8733 661.018C17.7414 660.889 17.6161 660.754 17.4993 660.611C9.13669 650.4 5.3675 639.512 5.36743 626.443C5.36743 623.682 7.60621 621.443 10.3674 621.443H43.3674L43.5686 621.447C45.6381 621.53 47.4522 622.884 48.1116 624.862C48.1134 624.868 48.1156 624.873 48.1174 624.879L48.1292 624.914C48.1311 624.92 48.1321 624.926 48.134 624.931L48.1399 624.949C48.1417 624.955 48.1439 624.96 48.1458 624.966L48.175 625.053C48.1769 625.059 48.1791 625.065 48.1809 625.07L48.2043 625.14C48.2062 625.146 48.2083 625.151 48.2102 625.157L48.2278 625.21C48.2297 625.215 48.2308 625.222 48.2327 625.227L48.2385 625.245C48.2404 625.25 48.2425 625.256 48.2444 625.261L48.2678 625.332C48.2697 625.337 48.2718 625.343 48.2737 625.348L48.303 625.436C48.3048 625.442 48.307 625.447 48.3088 625.453L48.3264 625.506C48.3283 625.511 48.3294 625.517 48.3313 625.523L48.3372 625.541C48.339 625.546 48.3412 625.552 48.343 625.557L48.3665 625.628C48.3683 625.633 48.3705 625.639 48.3723 625.644L48.4016 625.732C48.4035 625.738 48.4056 625.743 48.4075 625.749L48.425 625.802C48.427 625.807 48.428 625.813 48.4299 625.819L48.4358 625.837C48.4376 625.842 48.4398 625.848 48.4417 625.853L48.4709 625.941C48.4728 625.947 48.475 625.952 48.4768 625.958L48.5002 626.028C48.5021 626.034 48.5042 626.039 48.5061 626.045L48.5237 626.097C48.5256 626.103 48.5266 626.109 48.5286 626.115L48.5344 626.133C48.5363 626.138 48.5384 626.144 48.5403 626.149L48.5696 626.237C48.5714 626.243 48.5736 626.248 48.5754 626.254L48.6047 626.342C48.6066 626.347 48.6087 626.353 48.6106 626.358L48.6282 626.411C48.6301 626.417 48.6311 626.423 48.6331 626.428L48.6389 626.446C48.6408 626.452 48.6429 626.457 48.6448 626.463L48.6799 626.568C48.6818 626.574 48.6839 626.579 48.6858 626.585L48.7151 626.673C48.7169 626.678 48.7191 626.684 48.7209 626.689L48.7385 626.742C48.7404 626.748 48.7415 626.754 48.7434 626.76L48.7493 626.777C48.7511 626.783 48.7533 626.788 48.7551 626.794L48.7903 626.899C48.7921 626.905 48.7943 626.91 48.7961 626.916L48.8313 627.021C48.8332 627.027 48.8353 627.032 48.8372 627.038L48.8547 627.091C48.8567 627.096 48.8577 627.102 48.8596 627.108L48.8655 627.126C48.8673 627.131 48.8695 627.137 48.8713 627.142L48.9065 627.248C48.9083 627.253 48.9105 627.259 48.9124 627.264L48.9534 627.387C48.9552 627.393 48.9574 627.398 48.9592 627.404L48.9768 627.457C48.9787 627.463 48.9798 627.469 48.9817 627.474L48.9934 627.51C48.9953 627.515 48.9974 627.521 48.9993 627.526L49.0403 627.649C49.0421 627.655 49.0443 627.66 49.0461 627.666L49.0872 627.789C49.089 627.794 49.0912 627.8 49.093 627.805L49.1165 627.876C49.1184 627.881 49.1194 627.888 49.1213 627.893L49.1331 627.928C49.1349 627.934 49.1371 627.94 49.1389 627.945L49.1858 628.086C49.1876 628.091 49.1898 628.097 49.1917 628.102L49.2444 628.26C49.2462 628.266 49.2484 628.272 49.2502 628.277L49.2795 628.365C49.2815 628.371 49.2825 628.377 49.2844 628.383L49.302 628.435C49.3039 628.441 49.306 628.446 49.3079 628.452L49.3665 628.628C49.3683 628.633 49.3705 628.639 49.3723 628.644L49.4426 628.855C49.4445 628.861 49.4466 628.866 49.4485 628.872L49.4954 629.012C49.4973 629.018 49.4983 629.024 49.5002 629.03L49.5354 629.135C49.5373 629.141 49.5394 629.147 49.5413 629.152L49.6702 629.539C49.672 629.544 49.6742 629.55 49.676 629.555L49.9866 630.487C49.9885 630.493 49.9905 630.5 49.9924 630.506L50.1096 630.857C50.1116 630.863 50.1135 630.87 50.1155 630.876L50.1389 630.946C50.1409 630.952 50.1438 630.958 50.1458 630.964L50.1868 631.087C50.1886 631.092 50.1899 631.098 50.1917 631.103C53.0521 631.542 56.0104 631.627 59.3665 631.646H59.3743C60.1322 631.652 60.8903 631.657 61.6711 631.663H61.6702C63.2585 631.672 64.8471 631.68 66.4358 631.683H66.4436C68.9054 631.693 71.3632 631.724 73.7961 631.756H73.7952C75.334 631.762 76.8728 631.767 78.4114 631.771C78.4357 631.771 78.4603 631.771 78.4846 631.771C79.1825 631.783 79.8804 631.795 80.5979 631.807C82.7582 631.796 84.2066 631.598 85.3684 631.199C86.0669 630.959 86.7645 630.61 87.511 630.057C87.6611 627.155 87.6522 624.211 87.6809 621.023L87.6819 620.932L87.7698 617.698C87.7816 616.257 87.7816 616.224 87.7942 614.691V614.654C87.8072 613.812 87.8199 612.97 87.8333 612.108C87.8219 612.001 87.8109 611.904 87.801 611.814C86.0039 611.118 83.3927 611.116 79.7776 611.902C77.8784 612.315 75.9233 612.892 73.927 613.518C72.0167 614.118 69.9151 614.814 68.0803 615.323C68.0567 615.33 68.0327 615.336 68.009 615.343C56.1833 618.438 42.0406 621.807 28.4397 615.269C28.3123 615.208 28.1874 615.142 28.0657 615.07C16.7891 608.418 9.54693 600.17 6.12622 586.99C6.09512 586.87 6.06827 586.749 6.04614 586.627C4.90438 580.339 4.9636 574.141 5.03247 568.376C5.05572 566.294 5.05176 564.206 5.04517 562.088C5.04514 562.079 5.04515 562.07 5.04517 562.061C5.06015 554.769 5.41988 547.645 7.55591 540.084C7.80271 539.195 8.04967 538.306 8.30396 537.39L8.35962 537.203C8.37944 537.141 8.40087 537.079 8.4231 537.018C13.0978 524.169 22.8821 515.751 34.0823 509.996C34.1722 509.95 34.2641 509.906 34.3567 509.865C41.3662 506.785 48.3894 507.101 54.3059 507.073V507.072C55.4674 507.063 56.6288 507.054 57.8254 507.045H57.8352C60.296 507.03 62.7567 507.022 65.217 507.018V507.017C68.914 507.006 72.6142 506.957 76.343 506.906H76.3909C78.7624 506.897 81.1343 506.89 83.5061 506.885V506.885C84.6063 506.865 85.7065 506.846 86.8401 506.826C86.8791 506.825 86.9183 506.825 86.9573 506.825Z" fill="#030303" stroke="white" stroke-width="10" stroke-linejoin="round"/>
<path d="M464.511 506.807L468.179 506.817C469.4 506.824 470.62 506.834 471.84 506.847L471.841 506.846C475.497 506.88 479.159 506.867 482.853 506.848C482.867 506.847 482.88 506.847 482.894 506.848C485.263 506.854 487.632 506.864 490 506.877C491.616 506.869 491.624 506.869 493.287 506.861L493.385 506.862C505.769 507.05 514.636 510.849 523.498 519.335C523.565 519.4 523.632 519.467 523.696 519.536C529.515 525.775 533.278 531.804 535.522 538.558C537.742 545.24 538.368 552.318 538.368 560.442C538.368 563.204 536.129 565.442 533.368 565.442H499.368C496.782 565.442 494.622 563.471 494.388 560.895L493.583 552.033C493.426 551.914 493.284 551.809 493.152 551.714C492.702 551.389 492.559 551.332 492.549 551.328C492.478 551.298 492.381 551.235 490.094 551.085C489.386 551.082 488.676 551.08 487.948 551.077C486.699 551.095 486.692 551.095 485.406 551.114C485.385 551.114 485.364 551.114 485.343 551.114C484.033 551.117 484.031 551.116 482.698 551.119L482.699 551.12C480.865 551.127 479.031 551.141 477.197 551.161H477.196C474.348 551.192 471.506 551.201 468.679 551.207L468.68 551.208C466.888 551.217 465.095 551.227 463.303 551.239H463.295C462.449 551.243 461.602 551.248 460.729 551.253L460.728 551.252C458.612 551.278 457 551.329 455.492 551.567C455.261 553.095 455.26 554.7 455.27 557.057V557.067C455.273 558.36 455.276 559.653 455.28 560.984C455.288 562.356 455.297 563.727 455.305 565.099V565.112C455.31 566.496 455.315 567.88 455.319 569.264L455.341 573.986C460.854 573.324 466.177 572.136 471.843 570.562L471.919 570.542C486.007 566.871 499.04 564.64 513.848 573.101C513.941 573.154 514.032 573.211 514.122 573.269C524.798 580.315 533.66 589.839 537.2 603.158C537.265 603.404 537.312 603.655 537.339 603.908C537.878 608.924 537.987 613.812 537.944 618.682C537.937 619.73 537.942 620.78 537.954 621.839L538.001 625.058L538.002 625.118C538.079 639.049 534.283 651.483 523.923 661.959C523.831 662.052 523.735 662.141 523.636 662.226C517.185 667.798 510.528 672.127 501.639 674.278C500.783 674.516 500.76 674.524 499.841 674.779C499.761 674.801 499.681 674.821 499.6 674.84C496.992 675.427 494.722 675.579 492.324 675.602L492.325 675.603C491.526 675.613 490.728 675.623 489.905 675.633C489.893 675.633 489.881 675.633 489.87 675.633C489.014 675.637 488.159 675.64 487.278 675.644L487.279 675.645C486.383 675.651 485.487 675.657 484.564 675.663H484.557C482.655 675.672 480.754 675.678 478.852 675.682L478.853 675.682C476.011 675.692 473.166 675.723 470.3 675.755C470.292 675.755 470.283 675.755 470.274 675.755C457.436 675.83 442.819 676.018 430.405 666.471C429.838 666.069 429.27 665.667 428.686 665.254C428.635 665.218 428.584 665.18 428.535 665.142C419.538 658.251 413.992 647.993 411.505 637.607C411.414 637.226 411.368 636.834 411.368 636.442V626.442C411.368 623.681 413.607 621.442 416.368 621.442H449.368C451.452 621.442 453.317 622.736 454.049 624.687L456.405 630.969C458.467 631.832 460.998 631.748 465.331 631.743L465.365 631.744C466.502 631.75 466.502 631.75 467.662 631.757H467.661C469.244 631.762 470.827 631.763 472.411 631.759H472.417C474.871 631.755 477.318 631.778 479.738 631.804H479.739L484.396 631.806L484.462 631.807C485.527 631.82 485.548 631.82 486.593 631.833C488.587 631.813 489.86 631.66 490.908 631.351C491.638 631.136 492.389 630.804 493.276 630.226C493.52 629.414 493.664 628.429 493.716 627.187C493.754 626.3 493.745 625.367 493.723 624.318C493.703 623.316 493.669 622.149 493.68 621.017C493.681 620.984 493.682 620.95 493.683 620.917C493.712 619.974 493.74 619.031 493.769 618.06C493.829 615.076 493.814 614.366 493.686 613.754C493.593 613.307 493.427 612.849 492.832 611.539C492.029 611.3 491.134 611.249 490.028 611.36C488.08 611.557 486.223 612.137 483.347 612.84C480.07 613.679 476.814 614.539 473.578 615.442L473.572 615.443C460.76 619.003 446.6 620.994 432.917 614.508C432.799 614.451 432.682 614.391 432.568 614.325C422.999 608.826 416.328 601.116 412.983 590.317C412.961 590.247 412.94 590.176 412.921 590.104C410.78 581.932 410.883 573.832 410.922 566.328C410.931 563.903 410.902 561.472 410.871 559.001C410.87 558.987 410.87 558.973 410.87 558.959C410.831 550.377 411.011 541.881 416.009 532.992C416.454 532.2 416.899 531.409 417.357 530.594L417.412 530.498C427.167 513.985 442.633 506.61 460.991 506.814V506.813C462.148 506.811 463.307 506.809 464.5 506.807H464.511Z" fill="#020202" stroke="white" stroke-width="10" stroke-linejoin="round"/>
<path d="M326.361 506.951C328.521 506.941 330.682 506.937 332.842 506.942C336.058 506.943 339.278 506.902 342.535 506.858L342.573 506.857C357.712 506.768 371.345 507.673 384.047 519.782L384.652 520.367L384.89 520.617C391.132 527.671 394.604 534.36 396.431 541.769C398.212 548.987 398.368 556.685 398.368 565.443C398.368 568.204 396.129 570.443 393.368 570.443H360.368C357.736 570.443 355.555 568.402 355.379 565.776C354.931 559.054 354.888 558.417 354.509 552.736C353.098 551.503 352.147 551.019 351.303 550.75C350.006 550.338 348.435 550.241 344.979 550.204H344.976C344.26 550.196 343.543 550.188 342.805 550.18V550.179C341.301 550.165 339.796 550.156 338.292 550.148H338.28C336.715 550.136 335.149 550.115 333.583 550.085C331.384 550.043 329.178 550.027 326.947 550.017C326.912 550.017 326.877 550.016 326.842 550.015C325.848 549.99 325.813 549.988 324.868 549.964C322.579 549.977 321.385 550.174 319.861 550.944C319.241 551.716 319.023 552.297 318.9 552.856C318.69 553.812 318.688 554.934 318.72 557.277C318.721 557.318 318.721 557.359 318.72 557.4C318.711 558.192 318.703 558.985 318.694 559.801C318.672 562.372 318.687 564.949 318.704 567.563C318.704 567.577 318.704 567.591 318.704 567.605C318.7 569.428 318.695 571.251 318.689 573.075C318.685 574.972 318.686 576.87 318.691 578.769L318.716 584.473V584.475C318.745 589.392 318.728 594.3 318.698 599.196C318.689 601.063 318.686 602.932 318.687 604.803L318.699 610.428V613.159C318.697 614.067 318.692 614.975 318.686 615.883C318.674 618.361 318.693 620.846 318.72 623.356C318.721 623.397 318.721 623.439 318.72 623.48C318.711 624.192 318.701 624.903 318.691 625.635C318.73 627.388 318.862 628.178 319.053 628.754C319.208 629.22 319.486 629.795 320.215 630.784C321.14 631.412 321.861 631.679 322.559 631.826C323.528 632.031 324.691 632.062 326.755 632.003C326.798 632.002 326.841 632.001 326.883 632.001C327.591 631.999 328.3 631.997 329.029 631.994L331.244 631.971C331.982 631.96 332.721 631.947 333.459 631.931H333.461C335.791 631.881 338.108 631.868 340.394 631.863C341.854 631.849 343.314 631.832 344.773 631.814C344.781 631.814 344.789 631.814 344.797 631.814C345.455 631.809 346.112 631.803 346.788 631.798C349.672 631.726 351.702 631.455 353.728 630.628C354.823 628.088 354.808 625.087 354.997 620.428C354.997 620.419 354.998 620.41 354.999 620.402L355.374 612.214L355.391 611.965C355.634 609.415 357.779 607.443 360.368 607.443H392.368C395.088 607.443 397.309 609.618 397.367 612.337C397.449 616.242 397.531 620.146 397.616 624.168L397.726 627.847L397.728 627.947C397.864 641.409 392.977 652.468 383.938 662.07C383.87 662.142 383.799 662.212 383.727 662.281C376.054 669.513 367.048 674.481 355.641 674.618L355.642 674.619C354.694 674.632 353.745 674.645 352.768 674.659C352.758 674.659 352.747 674.658 352.737 674.659C351.207 674.67 351.207 674.669 349.647 674.68L349.648 674.681C348.061 674.693 348.061 674.693 346.442 674.705H346.434C344.191 674.719 341.948 674.729 339.705 674.737L339.706 674.738C337.438 674.749 335.17 674.77 332.903 674.799C329.579 674.842 326.261 674.857 322.958 674.867C321.968 674.885 320.976 674.903 319.956 674.921C319.922 674.922 319.888 674.921 319.854 674.921C307.442 674.884 297.667 670.356 288.928 662.072C288.821 661.97 288.718 661.864 288.621 661.753C284.267 656.825 280.832 651.967 278.51 646.512C276.171 641.017 275.064 635.16 275.045 628.347L275.046 628.346C275.037 627.475 275.026 626.603 275.016 625.705V625.7C274.987 622.772 274.972 619.849 274.961 616.936L274.945 613.899C274.915 608.585 274.896 603.273 274.887 597.96L274.873 593.889C274.852 589.817 274.815 585.742 274.772 581.659V581.652C274.734 577.416 274.724 573.186 274.721 568.966C274.715 566.976 274.7 564.987 274.673 562.998L274.672 562.993C274.491 548.18 275.513 533.318 287.81 520.696L288.085 520.434C293.346 515.797 298.539 512.375 304.331 510.145C310.119 507.916 316.244 506.98 323.252 506.975C324.274 506.967 325.296 506.959 326.349 506.951L326.361 506.951V506.951Z" fill="#020202" stroke="white" stroke-width="10" stroke-linejoin="round"/>
<path d="M259.367 506.443C262.124 506.443 264.36 508.674 264.367 511.43C264.408 527.291 264.408 527.294 264.416 534.102C264.422 538.729 264.43 543.354 264.444 547.978C264.455 551.716 264.461 555.454 264.463 559.191L264.474 563.434V563.435C264.511 573.536 264.547 579.201 263.931 583.327C263.247 587.907 261.742 590.726 259.554 594.936C258.979 596.07 258.403 597.204 257.811 598.372C257.76 598.473 257.705 598.572 257.648 598.669C250.948 609.918 241.438 616.297 229.811 620.514C229.619 620.583 229.423 620.641 229.225 620.687C227.843 621.004 226.814 621.247 225.157 621.354C224.645 621.387 224.062 621.404 223.367 621.417V670.443C223.367 673.204 221.129 675.443 218.367 675.443H185.367C182.606 675.443 180.367 673.204 180.367 670.443V621.008C178.24 620.815 176.096 620.621 173.915 620.422C173.546 620.389 173.182 620.315 172.829 620.201C159.13 615.771 150.302 606.306 144.123 594.425C144.077 594.336 144.033 594.245 143.991 594.153C141.304 588.117 140.119 582.973 140.141 576.246L140.14 574.145V574.14L140.151 570.707C140.157 569.573 140.165 568.441 140.173 567.314H140.172C140.176 565.733 140.179 564.151 140.181 562.57V562.567C140.189 558.405 140.209 554.245 140.231 550.091C140.255 545.11 140.264 540.128 140.276 535.135V535.134C140.295 527.56 140.333 519.985 140.367 512.42L140.375 512.163C140.52 509.531 142.701 507.443 145.367 507.443H178.367C181.113 507.443 183.345 509.656 183.367 512.402C183.423 519.241 183.424 519.245 183.481 526.214C183.511 529.107 183.542 531.999 183.576 534.889C183.631 539.481 183.682 544.083 183.714 548.687L183.763 554.222L183.83 559.761V559.77C183.847 561.192 183.859 562.615 183.865 564.037L183.892 566.968L183.935 569.923V569.951C183.95 571.523 183.951 571.632 183.965 573.03C184.237 574.874 184.748 576.24 185.71 577.54C187.708 577.617 189.703 577.663 191.718 577.681H191.721C192.556 577.689 193.391 577.697 194.251 577.705H194.25C196.012 577.719 197.774 577.73 199.536 577.738H199.545C202.267 577.755 204.984 577.799 207.674 577.843H207.675L212.818 577.869L212.906 577.87C213.713 577.887 214.52 577.904 215.351 577.922C216.478 577.943 217.133 577.953 217.63 577.936C217.856 577.928 217.992 577.916 218.073 577.906C218.145 577.896 218.171 577.889 218.172 577.889C218.174 577.888 218.194 577.883 218.245 577.862C218.306 577.836 218.414 577.785 218.596 577.687C218.77 577.593 218.963 577.479 219.2 577.337C219.738 575.95 219.773 574.643 219.8 571.791L219.801 571.76C219.811 571.106 219.821 570.452 219.831 569.779C219.861 567.656 219.87 565.529 219.879 563.374C219.879 563.363 219.88 563.351 219.88 563.339C219.897 561.841 219.914 560.344 219.934 558.846C219.981 554.928 220.011 551.007 220.037 547.077V547.073C220.073 542.339 220.13 537.604 220.183 532.888C220.261 525.732 220.312 518.576 220.368 511.404L220.376 511.148C220.529 508.521 222.707 506.443 225.367 506.443H259.367Z" fill="#030303" stroke="white" stroke-width="10" stroke-linejoin="round"/>
<path d="M227.63 5L230.395 5.01367C244.187 5.14261 257.425 6.2148 271.249 9.96289L271.248 9.96387C272.885 10.4047 274.535 10.8072 276.212 11.1924L277.901 11.5723L277.918 11.5762C314.501 19.8038 345.847 38.6852 373.601 62.6289L376.094 64.7422C376.099 64.7467 376.105 64.7513 376.11 64.7559C376.813 65.3568 377.515 65.9581 378.239 66.5771L380.028 68.1045C380.107 68.1721 380.185 68.243 380.26 68.3154C382.786 70.7615 385.591 73.5144 386.628 78.4707L386.722 78.957L386.757 79.1758C386.786 79.3948 386.801 79.6157 386.802 79.8369C386.808 84.1875 386.859 88.0229 383.835 93.0283C383.587 93.4379 383.283 93.8099 382.929 94.1328C380.577 96.2834 378.23 97.9873 375.429 99.0645C372.621 100.145 369.745 100.446 366.566 100.396C366.12 100.388 365.677 100.322 365.249 100.197C361.25 99.0342 358.125 96.8728 355.534 94.5957C353.107 92.463 350.666 89.7502 348.769 87.8447C328.609 67.6345 299.661 54.2207 271.805 46.6426C271.798 46.6405 271.79 46.6378 271.783 46.6357C271.098 46.4459 270.412 46.2569 269.707 46.0615C254.505 42.0944 239.601 40.8984 223.651 41.0049C223.645 41.0049 223.639 41.0049 223.634 41.0049C222.183 41.0094 222.181 41.009 220.706 41.0137L220.707 41.0146C206.663 41.0799 193.721 41.6875 180.692 45.2646C180.67 45.2708 180.647 45.2764 180.625 45.2822C179.266 45.6352 179.264 45.6348 177.881 45.9941C165.557 49.208 153.991 53.0122 142.881 58.6514L142.874 58.6553C142.201 58.9954 141.528 59.3343 140.835 59.6846C130.004 65.2128 119.868 71.1056 110.425 78.3994C110.418 78.4049 110.41 78.4106 110.403 78.416C109.189 79.3431 109.175 79.3538 107.965 80.2783L106.977 81.0547C102.06 84.9549 97.3817 89.1239 92.7234 93.4961L92.7166 93.5029L92.7156 93.502C90.1932 95.8604 87.8113 97.6346 84.8816 98.6699C82.0239 99.6797 79.0918 99.8203 75.8894 99.8018C75.6659 99.8004 75.4428 99.7841 75.2214 99.7529C72.4701 99.3653 70.2678 98.5177 68.281 97.1279C66.484 95.8709 65.0015 94.2421 63.7039 92.8447C63.3805 92.4965 63.1088 92.1038 62.8962 91.6787C60.2507 86.3877 60.4608 81.2027 61.4763 76.4072L61.5271 76.1904C61.6567 75.6893 61.8635 75.2108 62.1404 74.7725C67.6151 66.1053 76.4066 59.8371 83.2585 54.5254C84.2782 53.7128 85.2988 52.9007 86.3494 52.0635C86.3532 52.0604 86.3573 52.0577 86.3611 52.0547C112.622 31.2583 144.78 14.8762 178.463 9.52441C180.024 9.20686 181.584 8.88265 183.142 8.55176L183.214 8.53711C197.229 5.77373 210.675 5.0056 224.672 5.00586V5.00488C225.643 5.00315 226.616 5.00178 227.617 5H227.63Z" fill="#030303" stroke="white" stroke-width="10" stroke-linejoin="round"/>
<path d="M226.998 71.1692C241.748 71.1532 255.707 73.0752 269.912 77.6868H269.911L273.289 78.7727L273.364 78.7971C295.282 86.2285 313.45 97.3952 330.561 112.593C331.308 113.182 332.057 113.772 332.827 114.379C332.867 114.411 332.907 114.444 332.947 114.477C334.429 115.721 335.971 117.08 337.208 118.824C338.525 120.679 339.32 122.703 339.82 125.13C339.873 125.388 339.906 125.649 339.917 125.911C340.142 130.864 339.838 134.877 337.06 139.918C336.762 140.46 336.365 140.941 335.891 141.338C333.739 143.141 331.568 144.558 329.036 145.465C326.503 146.372 323.931 146.655 321.136 146.63C320.914 146.628 320.693 146.612 320.473 146.58C313.187 145.539 309.262 141.132 305.75 137.716C282.616 116.067 251.243 105.715 219.531 106.261C189.494 107.459 162.911 118.73 140.643 138.862L140.638 138.865C140.052 139.393 139.466 139.923 138.862 140.468C138.361 140.928 137.86 141.389 137.344 141.863C137.254 141.945 137.161 142.025 137.065 142.101C134.853 143.853 132.593 145.131 130.041 145.912C127.516 146.685 124.962 146.894 122.278 146.828C122.005 146.822 121.733 146.793 121.464 146.741C115.088 145.527 111.519 141.013 108.96 137.525C108.618 137.058 108.359 136.534 108.196 135.979C106.947 131.732 106.166 126.833 108.695 121.53L108.861 121.211C108.92 121.107 108.983 121.005 109.049 120.906C112.78 115.316 117.653 111.242 122.19 107.582L124.999 105.27L125.037 105.239C143.739 90.1475 167.171 77.6372 191.517 73.5169V73.5159C192.476 73.3503 193.435 73.1846 194.422 73.0139C194.445 73.0101 194.468 73.0058 194.491 73.0022C203.334 71.5994 211.922 71.1288 220.729 71.1819L220.728 71.1829C222.798 71.1934 224.872 71.1819 226.972 71.1692H226.998Z" fill="#030303" stroke="white" stroke-width="10" stroke-linejoin="round"/>
<path d="M198.307 134.558C209.173 131.831 219.523 131.049 230.523 131.446L230.524 131.445L233.396 131.535L233.536 131.542C241.667 132.025 248.893 134.204 255.999 136.716L258.964 137.74C259.01 137.756 259.057 137.772 259.103 137.79C271.276 142.398 286.909 151.205 295.142 163.1L295.528 163.67L295.68 163.912C296.016 164.485 296.236 165.121 296.324 165.783C297.032 171.098 297.427 177.023 293.858 183.052C293.593 183.5 293.26 183.904 292.87 184.249C290.76 186.117 288.643 187.724 286.098 188.763C283.491 189.828 280.831 190.141 277.838 190.079C277.468 190.071 277.1 190.022 276.741 189.933C270.85 188.476 266.924 184.249 264.125 181.753C254.43 173.68 242.251 167.872 230.188 167.439H230.184C228.581 167.38 228.558 167.378 226.97 167.32C209.226 166.996 193.599 172.039 180.761 183.979C180.214 184.511 179.667 185.043 179.104 185.59C179.05 185.643 178.995 185.694 178.938 185.744C177.382 187.126 175.783 188.243 173.853 188.996C171.956 189.735 170.058 189.999 168.12 190.121C167.899 190.135 167.677 190.133 167.456 190.118C164.393 189.903 161.823 189.204 159.442 187.796C157.194 186.468 155.398 184.663 153.71 182.851C153.577 182.708 153.452 182.558 153.336 182.4C149.591 177.293 149.947 172.258 150.395 167.928L150.428 167.669C150.522 167.065 150.727 166.484 151.032 165.953C160.959 148.668 181.227 139.305 198.185 134.59C198.225 134.579 198.266 134.568 198.307 134.558Z" fill="#040404" stroke="white" stroke-width="10" stroke-linejoin="round"/>
</svg>
